<svg height="512" viewBox="0 0 512.072 512.072" width="512" xmlns="http://www.w3.org/2000/svg"><ellipse cx="229.249" cy="190.531" fill="#fff" rx="34.837" ry="34.837" transform="rotate(-9.25 229.378 190.887)"/><path d="M222.443 299.845h13.613c7.404 0 13.406-6.002 13.406-13.406v-21.643a76.46 76.46 0 0 0 18.002-7.467l15.311 15.311c5.235 5.235 13.724 5.235 18.959 0l9.626-9.626c5.235-5.235 5.235-13.724 0-18.959l-15.311-15.311a76.485 76.485 0 0 0 7.467-18.002h21.643c7.404 0 13.406-6.002 13.406-13.406v-13.613c0-7.404-6.002-13.406-13.406-13.406h-21.643a76.46 76.46 0 0 0-7.467-18.002l15.311-15.311c5.235-5.235 5.235-13.724 0-18.959l-9.626-9.626c-5.235-5.235-13.724-5.235-18.959 0l-15.311 15.311a76.425 76.425 0 0 0-18.002-7.467V94.622c0-7.404-6.002-13.406-13.406-13.406h-13.613c-7.404 0-13.406 6.002-13.406 13.406v21.643a76.442 76.442 0 0 0-18.002 7.467l-15.311-15.311c-5.235-5.235-13.724-5.235-18.959 0l-9.626 9.626c-5.236 5.235-5.236 13.724 0 18.959l15.311 15.311a76.425 76.425 0 0 0-7.467 18.002H133.34c-7.404 0-13.406 6.002-13.406 13.406v13.613c0 7.404 6.002 13.406 13.406 13.406h21.643a76.442 76.442 0 0 0 7.467 18.002l-15.311 15.311c-5.235 5.235-5.235 13.724 0 18.959l9.626 9.626c5.235 5.235 13.724 5.235 18.959 0l15.311-15.311a76.442 76.442 0 0 0 18.002 7.467v21.643c0 7.402 6.002 13.404 13.406 13.404zm-28.03-109.314c0-19.24 15.597-34.837 34.837-34.837s34.836 15.597 34.836 34.837-15.597 34.837-34.836 34.837c-19.24-.001-34.837-15.598-34.837-34.837z" fill="#9bbecf"/><path d="M435.535 293.096v3.134" fill="none"/><path d="M408.739 269.434h-34.68v56.708h32.471c16.019 0 29.005-12.986 29.005-29.005v-.907c0-14.799-11.997-26.796-26.796-26.796z" fill="#a5dbff"/><path d="M209.88 437.361v-86.32c0-13.751 11.147-24.899 24.898-24.899h139.281V44.966c0-19.271-15.622-34.894-34.894-34.894-173.572.612-166.637-1.378-179.569 1.789v46.044c0 16.576-13.437 30.013-30.013 30.013H77.915c-2.611 12.249-.885-4.491-1.378 379.261 0 19.271 15.623 34.894 34.894 34.894h227.735c19.271 0 34.894-15.622 34.894-34.894v-4.919H234.778c-13.751-.001-24.898-11.148-24.898-24.899zM191.035 257.33l-15.311 15.311c-5.235 5.235-13.724 5.235-18.959 0l-9.626-9.626c-5.235-5.235-5.235-13.724 0-18.959l15.311-15.311a76.442 76.442 0 0 1-7.467-18.002H133.34c-7.404 0-13.406-6.002-13.406-13.406v-13.613c0-7.404 6.002-13.406 13.406-13.406h21.643a76.46 76.46 0 0 1 7.467-18.002l-15.311-15.311c-5.236-5.235-5.236-13.724 0-18.959l9.626-9.626c5.235-5.235 13.724-5.235 18.959 0l15.311 15.311a76.442 76.442 0 0 1 18.002-7.467V94.622c0-7.404 6.002-13.406 13.406-13.406h13.613c7.404 0 13.406 6.002 13.406 13.406v21.643a76.46 76.46 0 0 1 18.002 7.467l15.311-15.311c5.235-5.235 13.724-5.235 18.959 0l9.626 9.626c5.235 5.235 5.235 13.724 0 18.959l-15.311 15.311a76.425 76.425 0 0 1 7.467 18.002h21.643c7.404 0 13.406 6.002 13.406 13.406v13.613c0 7.404-6.002 13.406-13.406 13.406h-21.643a76.442 76.442 0 0 1-7.467 18.002l15.311 15.311c5.235 5.235 5.235 13.724 0 18.959l-9.626 9.626c-5.235 5.235-13.724 5.235-18.959 0l-15.311-15.311a76.425 76.425 0 0 1-18.002 7.467v21.643c0 7.404-6.002 13.406-13.406 13.406h-13.613c-7.404 0-13.406-6.002-13.406-13.406v-21.643a76.572 76.572 0 0 1-18.002-7.468z" fill="#fff"/><path d="M159.597 57.904V11.86c-1.084.449-11.237 1.897-24.072 11.87-33.046 27.767-44.717 31.676-53.712 52.133-2.959 6.728-3.644 11.198-3.898 12.054h51.669c16.575 0 30.013-13.437 30.013-30.013z" fill="#aec0c4"/><path d="M406.53 326.142H234.778c-13.751 0-24.898 11.147-24.898 24.899v86.32c0 13.751 11.147 24.899 24.898 24.899h163.811c20.405 0 36.946-16.541 36.946-36.946V297.137c0 16.019-12.986 29.005-29.005 29.005zm-113.219 98.109c-3.888 2.019-8.59 3.042-13.978 3.042-8.665 0-15.249-2.25-19.57-6.687-4.318-4.431-6.508-10.387-6.508-17.701v-7.662c0-7.238 2.189-13.174 6.507-17.644 4.321-4.476 10.83-6.745 19.346-6.745 5.46 0 10.104.947 13.804 2.814 3.809 1.925 5.739 4.293 5.739 7.038 0 1.971-.692 3.98-2.06 5.973-1.408 2.051-3.158 3.091-5.201 3.091-.429 0-1.342-.138-4.3-1.332a17.358 17.358 0 0 0-6.518-1.26c-5.957 0-8.853 2.649-8.853 8.099v7.592c0 5.45 2.933 8.099 8.966 8.099 2.169 0 4.276-.477 6.265-1.417 2.156-1.018 3.608-1.513 4.439-1.513 2.331 0 4.265.976 5.748 2.899 1.452 1.885 2.188 3.883 2.188 5.939.002 2.821-2.022 5.302-6.014 7.375zm47.244-1.799c-3.867 3.212-9.377 4.841-16.376 4.841-5.907 0-11.062-1.06-15.319-3.15-4.373-2.146-6.59-4.743-6.59-7.717 0-1.667.595-3.444 1.769-5.283 1.221-1.91 2.728-2.879 4.479-2.879.996 0 2.163.381 3.567 1.166 1.279.717 2.926 1.465 4.894 2.224 1.924.742 4.194 1.118 6.751 1.118 4.304 0 6.485-1.035 6.485-3.076 0-1.097-.789-1.995-2.413-2.743-1.762-.812-3.945-1.512-6.491-2.079a63.54 63.54 0 0 1-7.837-2.294c-2.664-.966-4.954-2.585-6.806-4.811-1.871-2.25-2.82-5.166-2.82-8.666 0-5.029 1.754-9.373 5.214-12.912 3.462-3.542 9.003-5.337 16.471-5.337 5.068 0 9.623.789 13.537 2.345 4.06 1.617 6.118 3.726 6.118 6.268 0 1.586-.631 3.436-1.875 5.498-1.294 2.142-2.954 3.228-4.936 3.228-.818 0-2.567-.47-5.347-1.437-2.641-.916-5.088-1.38-7.273-1.38-1.998 0-3.52.32-4.521.953-.942.594-1.4 1.253-1.4 2.016 0 .844.816 1.561 2.426 2.129 1.812.641 4.03 1.275 6.598 1.883a64.713 64.713 0 0 1 7.836 2.402c2.665 1.003 4.975 2.734 6.865 5.146 1.902 2.429 2.867 5.504 2.867 9.14-.002 5.661-1.978 10.172-5.873 13.407zm48.337 0c-3.867 3.212-9.377 4.841-16.376 4.841-5.907 0-11.062-1.06-15.319-3.15-4.373-2.146-6.59-4.743-6.59-7.717 0-1.667.595-3.444 1.769-5.283 1.221-1.91 2.728-2.879 4.479-2.879.996 0 2.163.381 3.567 1.166 1.279.717 2.926 1.465 4.894 2.224 1.924.742 4.194 1.118 6.751 1.118 4.304 0 6.485-1.035 6.485-3.076 0-1.097-.789-1.995-2.413-2.743-1.762-.812-3.945-1.512-6.491-2.079a63.54 63.54 0 0 1-7.837-2.294c-2.664-.966-4.954-2.585-6.806-4.811-1.871-2.25-2.82-5.166-2.82-8.666 0-5.029 1.754-9.373 5.214-12.912 3.462-3.542 9.003-5.337 16.471-5.337 5.068 0 9.623.789 13.537 2.345 4.06 1.617 6.118 3.726 6.118 6.268 0 1.586-.631 3.436-1.875 5.498-1.294 2.142-2.954 3.228-4.936 3.228-.818 0-2.567-.47-5.347-1.437-2.641-.916-5.088-1.38-7.273-1.38-1.998 0-3.52.32-4.521.953-.942.594-1.4 1.253-1.4 2.016 0 .844.816 1.561 2.426 2.129 1.812.641 4.03 1.275 6.598 1.883a64.713 64.713 0 0 1 7.836 2.402c2.665 1.003 4.975 2.734 6.865 5.146 1.902 2.429 2.867 5.504 2.867 9.14-.002 5.661-1.977 10.172-5.873 13.407z" fill="#a5dbff"/><path d="M274.086 190.53c0-24.723-20.113-44.836-44.837-44.836-24.723 0-44.836 20.114-44.836 44.836 0 24.723 20.113 44.837 44.836 44.837s44.837-20.113 44.837-44.837zm-69.673 0c0-13.695 11.142-24.836 24.836-24.836 13.695 0 24.837 11.142 24.837 24.836 0 13.695-11.142 24.837-24.837 24.837-13.694 0-24.836-11.141-24.836-24.837z"/><path d="M222.443 309.845h13.612c12.906 0 23.406-10.5 23.406-23.406v-14.358a86.726 86.726 0 0 0 6.086-2.525l10.156 10.156c9.126 9.125 23.974 9.125 33.102 0l9.625-9.625c9.126-9.126 9.126-23.975 0-33.102l-10.155-10.156a86.158 86.158 0 0 0 2.524-6.086h14.358c12.906 0 23.406-10.5 23.406-23.406v-13.613c0-12.906-10.5-23.406-23.406-23.406H310.8a86.25 86.25 0 0 0-2.525-6.086l10.156-10.155c9.126-9.126 9.126-23.976 0-33.101l-9.626-9.626c-9.128-9.126-23.977-9.124-33.101 0l-10.155 10.156a86.47 86.47 0 0 0-6.087-2.525V94.622c0-12.906-10.5-23.406-23.406-23.406h-13.612c-12.906 0-23.406 10.5-23.406 23.406v14.358a86.47 86.47 0 0 0-6.087 2.525l-10.155-10.156c-9.127-9.126-23.975-9.125-33.102 0l-9.625 9.625c-9.126 9.126-9.126 23.975 0 33.102l10.156 10.155a86.169 86.169 0 0 0-2.525 6.086h-14.358c-12.906 0-23.406 10.5-23.406 23.406v13.613c0 12.906 10.5 23.406 23.406 23.406H147.7a86.24 86.24 0 0 0 2.524 6.086l-10.155 10.156c-9.126 9.126-9.126 23.976 0 33.101l9.625 9.626c9.126 9.126 23.976 9.126 33.102 0l10.156-10.156a86.726 86.726 0 0 0 6.086 2.525v14.358c-.001 12.907 10.499 23.407 23.405 23.407zm-26.434-61.191a10.003 10.003 0 0 0-12.045 1.604l-15.312 15.311a3.409 3.409 0 0 1-4.816 0l-9.625-9.626a3.41 3.41 0 0 1 0-4.817l15.311-15.311a9.999 9.999 0 0 0 1.604-12.044 66.556 66.556 0 0 1-6.492-15.649 10 10 0 0 0-9.65-7.379h-21.643a3.41 3.41 0 0 1-3.406-3.406v-13.613a3.41 3.41 0 0 1 3.406-3.406h21.643a9.998 9.998 0 0 0 9.65-7.379 66.496 66.496 0 0 1 6.492-15.648 9.999 9.999 0 0 0-1.604-12.045l-15.312-15.312a3.41 3.41 0 0 1 0-4.817l9.625-9.625a3.409 3.409 0 0 1 4.816 0l15.312 15.311a9.999 9.999 0 0 0 12.045 1.604 66.524 66.524 0 0 1 15.648-6.492 10 10 0 0 0 7.38-9.651V94.622a3.41 3.41 0 0 1 3.406-3.406h13.612a3.41 3.41 0 0 1 3.406 3.406v21.643a10 10 0 0 0 7.38 9.651 66.506 66.506 0 0 1 15.648 6.492 10.003 10.003 0 0 0 12.045-1.604l15.312-15.311a3.409 3.409 0 0 1 4.816 0l9.625 9.626a3.409 3.409 0 0 1 0 4.816l-15.312 15.312a10 10 0 0 0-1.604 12.045 66.514 66.514 0 0 1 6.492 15.648 10 10 0 0 0 9.65 7.379h21.643a3.41 3.41 0 0 1 3.406 3.406v13.613a3.41 3.41 0 0 1-3.406 3.406h-21.643a9.998 9.998 0 0 0-9.65 7.379 66.556 66.556 0 0 1-6.492 15.649 10 10 0 0 0 1.604 12.044l15.311 15.311a3.411 3.411 0 0 1 0 4.818l-9.624 9.625a3.408 3.408 0 0 1-4.817 0l-15.312-15.311a10.002 10.002 0 0 0-12.045-1.604 66.563 66.563 0 0 1-15.649 6.492 10 10 0 0 0-7.379 9.65v21.643a3.41 3.41 0 0 1-3.406 3.406h-13.612a3.41 3.41 0 0 1-3.406-3.406v-21.643a9.999 9.999 0 0 0-7.379-9.65 66.612 66.612 0 0 1-15.647-6.493z"/><path d="M408.739 259.434h-24.68V44.965c0-24.754-20.14-44.894-44.894-44.894C166.863.753 172.086-1.49 157.234 2.145l-.016.003c-10.162 2.489-19.83 7.257-27.957 13.789L93.407 44.751c-17.44 14.016-26.87 35.038-26.87 56.068v366.359c0 24.754 20.14 44.894 44.894 44.894h227.735c23.035 0 42.065-17.443 44.598-39.813h14.825c25.887 0 46.946-21.06 46.946-46.946V296.229c0-20.289-16.507-36.795-36.796-36.795zM105.936 60.34l35.854-28.815a51.62 51.62 0 0 1 7.807-5.175v31.554c0 11.035-8.978 20.013-20.013 20.013H91.883a51.969 51.969 0 0 1 14.053-17.577zm233.23 431.732H111.43c-13.727 0-24.894-11.167-24.894-24.894.03-390.963-.076-366.502.085-369.261h42.962c22.063 0 40.013-17.95 40.013-40.013V20.292c4.428-.41-4.282-.143 169.569-.22 13.727 0 24.894 11.167 24.894 24.894v271.177H234.778c-19.243 0-34.898 15.655-34.898 34.898v86.32c0 19.243 15.655 34.898 34.898 34.898h128.76c-2.353 11.298-12.387 19.813-24.372 19.813zm86.369-66.758c0 14.858-12.088 26.946-26.946 26.946H234.778c-8.215 0-14.898-6.684-14.898-14.898v-86.32c0-8.215 6.684-14.898 14.898-14.898 182.693 0 178.246 2.06 190.757-4.951zm0-128.177c0 10.479-8.525 19.005-19.005 19.005h-22.471v-36.708h24.68c9.262 0 16.796 7.535 16.796 16.796z"/><path d="M177.635 343.921h-67.051c-5.522 0-10 4.477-10 10s4.478 10 10 10h67.051c5.522 0 10-4.477 10-10s-4.478-10-10-10zM177.635 385.408h-27.051c-5.522 0-10 4.477-10 10s4.478 10 10 10h27.051c5.522 0 10-4.477 10-10s-4.478-10-10-10zM110.584 405.408h.025c5.522 0 9.987-4.477 9.987-10s-4.49-10-10.013-10-10 4.477-10 10 4.478 10 10.001 10zM177.635 426.896h-67.051c-5.522 0-10 4.477-10 10s4.478 10 10 10h67.051c5.522 0 10-4.477 10-10s-4.478-10-10-10z"/><g><path d="M291.39 408.039c-.831 0-2.283.495-4.439 1.513a14.553 14.553 0 0 1-6.265 1.417c-6.033 0-8.966-2.649-8.966-8.099v-7.592c0-5.45 2.896-8.099 8.853-8.099 2.25 0 4.443.424 6.518 1.26 2.958 1.194 3.871 1.332 4.3 1.332 2.043 0 3.793-1.04 5.201-3.091 1.367-1.993 2.06-4.002 2.06-5.973 0-2.745-1.931-5.112-5.739-7.038-3.699-1.868-8.344-2.814-13.804-2.814-8.516 0-15.024 2.269-19.346 6.745-4.317 4.469-6.507 10.405-6.507 17.644v7.662c0 7.314 2.189 13.271 6.508 17.701 4.321 4.437 10.905 6.687 19.57 6.687 5.388 0 10.09-1.023 13.978-3.042 3.991-2.073 6.016-4.554 6.016-7.374 0-2.056-.736-4.054-2.188-5.939-1.485-1.925-3.419-2.9-5.75-2.9zM336.693 394.759a64.535 64.535 0 0 0-7.836-2.402c-2.567-.608-4.786-1.242-6.598-1.883-1.609-.568-2.426-1.285-2.426-2.129 0-.762.458-1.421 1.4-2.016 1.002-.632 2.523-.953 4.521-.953 2.186 0 4.633.464 7.273 1.38 2.779.967 4.528 1.437 5.347 1.437 1.981 0 3.642-1.086 4.936-3.228 1.244-2.062 1.875-3.912 1.875-5.498 0-2.542-2.059-4.651-6.118-6.268-3.914-1.556-8.469-2.345-13.537-2.345-7.468 0-13.009 1.795-16.471 5.337-3.46 3.539-5.214 7.883-5.214 12.912 0 3.5.949 6.415 2.82 8.666 1.852 2.226 4.142 3.844 6.806 4.811a63.54 63.54 0 0 0 7.837 2.294c2.546.567 4.729 1.267 6.491 2.079 1.624.749 2.413 1.646 2.413 2.743 0 2.041-2.182 3.076-6.485 3.076-2.557 0-4.827-.376-6.751-1.118-1.968-.759-3.614-1.507-4.894-2.224-1.404-.784-2.571-1.166-3.567-1.166-1.751 0-3.258.969-4.479 2.879-1.174 1.839-1.769 3.617-1.769 5.283 0 2.974 2.217 5.57 6.59 7.717 4.258 2.09 9.412 3.15 15.319 3.15 6.999 0 12.509-1.629 16.376-4.841 3.896-3.235 5.871-7.747 5.871-13.408 0-3.636-.965-6.711-2.867-9.14-1.888-2.411-4.198-4.142-6.863-5.145zM391.896 399.904c-1.891-2.411-4.2-4.143-6.865-5.146a64.535 64.535 0 0 0-7.836-2.402c-2.567-.608-4.786-1.242-6.598-1.883-1.609-.568-2.426-1.285-2.426-2.129 0-.762.458-1.421 1.4-2.016 1.002-.632 2.523-.953 4.521-.953 2.186 0 4.633.464 7.273 1.38 2.779.967 4.528 1.437 5.347 1.437 1.981 0 3.642-1.086 4.936-3.228 1.244-2.062 1.875-3.912 1.875-5.498 0-2.542-2.059-4.651-6.118-6.268-3.914-1.556-8.469-2.345-13.537-2.345-7.468 0-13.009 1.795-16.471 5.337-3.46 3.539-5.214 7.883-5.214 12.912 0 3.5.949 6.415 2.82 8.666 1.852 2.226 4.142 3.844 6.806 4.811a63.54 63.54 0 0 0 7.837 2.294c2.546.567 4.729 1.267 6.491 2.079 1.624.749 2.413 1.646 2.413 2.743 0 2.041-2.182 3.076-6.485 3.076-2.557 0-4.827-.376-6.751-1.118-1.968-.759-3.614-1.507-4.894-2.224-1.404-.784-2.571-1.166-3.567-1.166-1.751 0-3.258.969-4.479 2.879-1.174 1.839-1.769 3.617-1.769 5.283 0 2.974 2.217 5.57 6.59 7.717 4.258 2.09 9.412 3.15 15.319 3.15 6.999 0 12.509-1.629 16.376-4.841 3.896-3.235 5.871-7.747 5.871-13.408.002-3.635-.962-6.71-2.865-9.139z"/></g></svg>