<svg height="512" width="512" xmlns="http://www.w3.org/2000/svg"><path clip-rule="evenodd" d="M10 128.422h428.957V55.844c0-10.583-8.682-19.237-19.265-19.237H29.236C18.653 36.607 10 45.261 10 55.844z" fill="#ff7d95" fill-rule="evenodd"/><path clip-rule="evenodd" d="M101.925 299.708h337.032V128.422H10v250.277c0 10.583 8.653 19.265 19.236 19.265h72.689z" fill="#fff" fill-rule="evenodd"/><path clip-rule="evenodd" d="M101.925 475.393H502V299.708H101.925v98.255z" fill="#a0e5a5" fill-rule="evenodd"/><path d="M502 289.708h-53.043V55.844c0-16.121-13.128-29.237-29.265-29.237H29.236C13.115 26.607 0 39.723 0 55.844v322.854c0 16.137 13.115 29.265 29.236 29.265h62.689v67.43c0 5.523 4.477 10 10 10h45.027c5.523 0 10-4.477 10-10s-4.477-10-10-10h-35.027V309.708H492v155.685H236.863c-5.523 0-10 4.477-10 10s4.477 10 10 10H502c5.523 0 10-4.477 10-10V299.708c0-5.522-4.477-10-10-10zM29.236 46.607h390.456c5.108 0 9.265 4.144 9.265 9.237v62.578H20V55.844c0-5.094 4.144-9.237 9.236-9.237zm72.689 243.101c-5.523 0-10 4.477-10 10v88.255H29.236c-5.093 0-9.236-4.156-9.236-9.265V138.421h408.957v151.287z"/><path d="M339.343 92.514c5.523 0 10-4.477 10-10s-4.477-10-10-10h-.057c-5.523 0-9.972 4.477-9.972 10s4.506 10 10.029 10zM386.384 92.514c5.523 0 10-4.477 10-10s-4.477-10-10-10h-.028c-5.523 0-9.986 4.477-9.986 10s4.491 10 10.014 10zM292.302 92.514c5.523 0 10-4.477 10-10s-4.477-10-10-10h-.057c-5.523 0-9.971 4.477-9.971 10s4.505 10 10.028 10zM62.545 92.514h130.994c5.523 0 10-4.477 10-10s-4.477-10-10-10H62.545c-5.523 0-10 4.477-10 10s4.477 10 10 10zM322.939 425.702l6.753-37.396 11.181 37.881a11.644 11.644 0 0 0 11.175 8.318h.1a11.61 11.61 0 0 0 11.082-8.406l10.785-37.808 7.17 37.51c1.037 5.425 6.275 8.982 11.7 7.945s8.981-6.275 7.945-11.7l-13.76-71.982-.022-.114a11.674 11.674 0 0 0-10.827-9.329c-5.292-.277-10.118 3.055-11.714 8.11a11.94 11.94 0 0 0-.081.269l-12.523 43.902-12.984-43.99a11.677 11.677 0 0 0-11.898-8.281 11.701 11.701 0 0 0-10.733 9.379l-.035.183-12.995 71.954c-.981 5.435 2.629 10.637 8.063 11.618 5.43.979 10.637-2.628 11.618-8.063zM432.545 340.609c-5.523 0-10 4.477-10 10v73.826a10 10 0 0 0 8.304 9.855c.714.123 1.235.213 9.522.213 3.966 0 9.711-.021 18.105-.068 5.522-.031 9.975-4.534 9.943-10.057-.031-5.503-4.502-9.943-9.999-9.943h-.058c-4.823.027-10.852.052-15.818.06v-63.886c.001-5.523-4.476-10-9.999-10zM196.631 340.609c-5.523 0-10 4.477-10 10v25.665h-31.155v-25.665c0-5.523-4.477-10-10-10s-10 4.477-10 10v73.883c0 5.523 4.477 10 10 10s10-4.477 10-10v-28.218h31.155v28.218c0 5.523 4.477 10 10 10s10-4.477 10-10v-73.883c0-5.523-4.477-10-10-10zM257.263 434.492c5.523 0 10-4.477 10-10v-63.883h10.484c5.523 0 10-4.477 10-10s-4.477-10-10-10H236.92c-5.523 0-10 4.477-10 10s4.477 10 10 10h10.343v63.883c0 5.523 4.477 10 10 10zM148.357 164.028c-5.391-1.2-10.733 2.2-11.933 7.591l-18.272 82.168c-1.199 5.391 2.2 10.733 7.591 11.933.731.163 1.461.24 2.18.24 4.583 0 8.716-3.171 9.752-7.831l18.272-82.168c1.199-5.392-2.199-10.734-7.59-11.933zM90.089 173.295c-4.253-3.523-10.558-2.932-14.08 1.322l-28.06 33.877a10 10 0 0 0 0 12.758l28.06 33.877a9.979 9.979 0 0 0 7.707 3.622 9.964 9.964 0 0 0 6.374-2.299c4.253-3.523 4.845-9.827 1.322-14.08l-22.776-27.499 22.776-27.498c3.523-4.253 2.931-10.557-1.323-14.08zM198.062 174.618c-3.523-4.254-9.828-4.846-14.08-1.322-4.253 3.523-4.845 9.827-1.322 14.08l22.776 27.498-22.776 27.499c-3.523 4.253-2.931 10.557 1.322 14.08a9.956 9.956 0 0 0 6.374 2.299 9.98 9.98 0 0 0 7.707-3.622l28.06-33.877a10 10 0 0 0 0-12.758zM315.312 201.438h77.966c5.523 0 10-4.477 10-10s-4.477-10-10-10h-77.966c-5.523 0-10 4.477-10 10s4.477 10 10 10zM258.681 201.438h16.598c5.523 0 10-4.477 10-10s-4.477-10-10-10h-16.598c-5.523 0-10 4.477-10 10s4.477 10 10 10zM336.647 232.708h-77.966c-5.523 0-10 4.477-10 10s4.477 10 10 10h77.966c5.523 0 10-4.477 10-10s-4.477-10-10-10zM393.278 232.708H376.68c-5.523 0-10 4.477-10 10s4.477 10 10 10h16.598c5.523 0 10-4.477 10-10s-4.477-10-10-10zM191.893 465.393c-5.523 0-10 4.477-10 10s4.477 10 10 10h.057c5.523 0 9.971-4.477 9.971-10s-4.505-10-10.028-10z"/></svg>