<svg height="512" viewBox="0 0 256 256" width="512" xmlns="http://www.w3.org/2000/svg"><path d="M197.536 170V24.466c0-6.787-5.553-12.341-12.341-12.341H84.828L34.426 62.526V170z" fill="#edf4fc"/><path d="M34.426 170v51.534c0 6.787 5.553 12.341 12.341 12.341h138.428c6.787 0 12.341-5.553 12.341-12.341V170z" fill="#fc657e"/><path d="M111.453 185.859h-4.075a.5.5 0 0 0-.5.5v23.465c0 2.583-1.29 4.202-4.022 4.202-3.179 0-4.427-2.208-4.427-5.411a.5.5 0 0 0-.5-.5h-4.074a.5.5 0 0 0-.5.5c0 6.492 3.779 10.128 9.68 10.128 5.705 0 8.919-3.55 8.919-8.919v-23.465a.502.502 0 0 0-.501-.5zM122.425 196.761c-1.573-1.863-1.45-7.036 4.073-7.036 3.306 0 5.248 2.032 5.688 4.34a.5.5 0 0 0 .491.406h4.389a.5.5 0 0 0 .496-.563c-.604-4.701-4.373-8.452-11.064-8.452-3.577 0-7.135 1.15-9.043 4.174-1.871 2.965-1.54 7.26.109 9.518 4.373 5.983 15.331 3.897 15.331 10.721 0 2.594-1.616 4.605-5.053 4.605-3.685 0-5.905-2.413-6.175-5.103a.5.5 0 0 0-.498-.45h-4.344a.5.5 0 0 0-.498.544c.505 5.754 5.527 9.278 11.648 9.278 6.675 0 10.263-4.156 10.263-9.008.001-10.433-12.082-8.547-15.813-12.974z"/><path d="M185.195 236.375H46.767c-8.183 0-14.84-6.658-14.84-14.841V170a2.5 2.5 0 1 1 5 0v51.534c0 5.426 4.415 9.841 9.84 9.841h138.428c5.426 0 9.841-4.415 9.841-9.841V170a2.5 2.5 0 1 1 5 0v51.534c0 8.183-6.658 14.841-14.841 14.841z"/><path d="M34.426 62.526h38.061c6.787 0 12.341-5.553 12.341-12.341v-38.06z" fill="#fc657e"/><path d="M223.918 131.551c-4.149.773-7.419 3.976-8.208 8.041-.04.204-.325.204-.364 0-.789-4.065-4.059-7.268-8.208-8.041a.18.18 0 0 1 0-.357c4.149-.773 7.419-3.976 8.208-8.041.04-.204.325-.204.364 0 .789 4.065 4.059 7.268 8.208 8.041a.18.18 0 0 1 0 .357z" fill="#f5c84c"/><path d="M119.412 250.253c-2.91.542-5.204 2.789-5.757 5.64-.028.143-.228.143-.255 0-.553-2.851-2.847-5.098-5.757-5.64a.126.126 0 0 1 0-.25c2.91-.542 5.204-2.789 5.757-5.64.028-.143.228-.143.255 0 .553 2.851 2.847 5.098 5.757 5.64a.126.126 0 0 1 0 .25z" fill="#fc657e"/><circle cx="73.981" cy="3.377" fill="#fc657e" r="3.377"/><circle cx="210.981" cy="102.377" fill="#87d147" r="3.377"/><path d="M54.454 10.758H52.63V8.933a2.473 2.473 0 1 0-4.946 0v1.824H45.86a2.473 2.473 0 1 0 0 4.946h1.824v1.824a2.473 2.473 0 1 0 4.946 0v-1.824h1.824a2.473 2.473 0 1 0 0-4.945z" fill="#70d6f9"/><circle cx="87.365" cy="245.627" fill="#f5c84c" r="3.377"/><path d="M197.536 172.5H34.426a2.5 2.5 0 0 1-2.5-2.5V62.526a2.5 2.5 0 0 1 .732-1.768L83.06 10.357a2.498 2.498 0 0 1 1.768-.732h100.367c8.183 0 14.841 6.658 14.841 14.841V170a2.5 2.5 0 0 1-2.5 2.5zm-160.61-5h158.109V24.466c0-5.426-4.415-9.841-9.841-9.841H85.863L36.926 63.562z"/><path d="M72.487 65.026H35.156a2.5 2.5 0 1 1 0-5h37.331c5.426 0 9.841-4.415 9.841-9.841v-37.06a2.5 2.5 0 1 1 5 0v37.061c0 8.183-6.658 14.84-14.841 14.84z"/><path d="M157.37 106.08l-21.388-16.07a4.828 4.828 0 0 0-6.763.96 4.836 4.836 0 0 0 .96 6.763l16.249 12.208-16.249 12.208a4.836 4.836 0 0 0-.96 6.763 4.835 4.835 0 0 0 6.763.96l21.389-16.071c2.57-1.929 2.573-5.786-.001-7.721zM102.671 122.15l-16.248-12.208 16.248-12.208a4.827 4.827 0 0 0 .96-6.763 4.837 4.837 0 0 0-6.763-.961L75.48 106.081c-1.225.921-1.928 2.329-1.928 3.862s.703 2.94 1.928 3.861l21.388 16.07a4.828 4.828 0 0 0 6.763-.96 4.827 4.827 0 0 0-.96-6.764zM125.497 83.787a4.83 4.83 0 0 0-6.166 2.94l-15.302 43.204a4.828 4.828 0 0 0 2.94 6.166 4.826 4.826 0 0 0 6.165-2.94l15.302-43.204a4.827 4.827 0 0 0-2.939-6.166z" fill="#fc657e"/><path d="M133.091 133.34a7.328 7.328 0 0 1-5.87-2.923c-2.428-3.23-1.775-7.835 1.455-10.264l13.589-10.21-13.588-10.21c-1.563-1.175-2.577-2.891-2.852-4.831s.22-3.87 1.396-5.433a7.279 7.279 0 0 1 4.839-2.855 7.302 7.302 0 0 1 5.424 1.399l21.388 16.07c1.86 1.398 2.927 3.535 2.927 5.86s-1.067 4.461-2.927 5.859l-21.389 16.071a7.286 7.286 0 0 1-4.392 1.467zm-.007-41.799a2.315 2.315 0 0 0-1.867.932 2.31 2.31 0 0 0-.442 1.726c.088.618.409 1.164.905 1.537l16.249 12.208a2.5 2.5 0 0 1 0 3.998L131.68 124.15c-1.027.772-1.235 2.236-.463 3.263s2.236 1.234 3.262.464l21.389-16.071c.591-.444.931-1.124.931-1.863s-.339-1.418-.932-1.864l-21.387-16.07a2.312 2.312 0 0 0-1.396-.468zM99.755 133.344a7.275 7.275 0 0 1-4.389-1.472l-21.388-16.07a7.271 7.271 0 0 1-2.926-5.858 7.272 7.272 0 0 1 2.925-5.862l21.388-16.07a7.278 7.278 0 0 1 5.434-1.395 7.284 7.284 0 0 1 4.831 2.852 7.281 7.281 0 0 1 1.398 5.434 7.289 7.289 0 0 1-2.855 4.829l-13.588 10.21 13.588 10.21a7.278 7.278 0 0 1 2.856 4.834 7.29 7.29 0 0 1-1.399 5.43 7.281 7.281 0 0 1-4.83 2.854c-.349.05-.698.074-1.045.074zm.007-41.801c-.501 0-.986.161-1.392.465l-21.388 16.07a2.281 2.281 0 0 0-.929 1.864c0 .75.331 1.412.93 1.862l21.388 16.07a2.296 2.296 0 0 0 1.728.444 2.315 2.315 0 0 0 1.535-.907c.375-.499.533-1.111.446-1.727s-.41-1.161-.909-1.537l-16.25-12.207a2.5 2.5 0 0 1 0-3.998l16.248-12.208c.499-.375.821-.92.909-1.536a2.306 2.306 0 0 0-.445-1.726 2.313 2.313 0 0 0-1.871-.929z"/><path d="M108.576 138.875c-.81 0-1.633-.135-2.439-.42-3.81-1.349-5.813-5.547-4.464-9.357l15.302-43.205c1.349-3.81 5.547-5.812 9.356-4.462 3.809 1.35 5.81 5.547 4.462 9.356l-15.302 43.205c-1.062 3.003-3.896 4.883-6.915 4.883zm15.31-52.865c-.96 0-1.861.598-2.199 1.552l-15.302 43.204a2.334 2.334 0 0 0 1.418 2.975 2.332 2.332 0 0 0 2.975-1.417L126.08 89.12a2.335 2.335 0 0 0-2.194-3.11z"/></svg>