<svg xmlns="http://www.w3.org/2000/svg" viewBox="0 0 416 416"><path d="M320 8H120c-17.672 0-32 14.328-32 32v8H40C22.328 48 8 62.328 8 80v40c0 17.672 14.328 32 32 32h48v192c0 17.68 14.32 32 32 32h48c0 17.672 14.328 32 32 32h96c17.672 0 32-14.328 32-32h48c17.672 0 32-14.328 32-32V88L328 8h-8zm-40 72c0-17.672-14.328-32-32-32 17.68 0 32 14.32 32 32zm0 40c0 17.68-14.32 32-32 32 17.672 0 32-14.328 32-32z" fill="#ffd9f3"/><path d="M328 8h-8v56c0 17.672 14.328 32 32 32h56v-8L328 8z" fill="#ff8cda"/><g fill="#ff3fc2"><path d="M280 80v40c0 17.672-14.328 32-32 32H40c-17.672 0-32-14.328-32-32V80c0-17.672 14.328-32 32-32h208c17.672 0 32 14.328 32 32zM296 408h-96c-17.672 0-32-14.328-32-32v-80c0-17.672 14.328-32 32-32h96c17.672 0 32 14.328 32 32v80c0 17.672-14.328 32-32 32z"/></g><path d="M72.376 127.128l4-9.656c1.168-2.832 2.328-5.672 3.496-9h.336c1.328 3.328 2.496 6.168 3.832 9l4.328 9.656h15.984L89.704 99.984l13.824-26.976h-15.32l-3.168 8.824c-1 2.504-2.168 5.504-3.328 9h-.336c-1.504-3.504-2.664-6.504-3.832-9l-3.664-8.824H57.896L71.72 99.312l-14.656 27.816h15.312zM154.928 99.816c0-19.144-11.32-26.808-27.808-26.808h-15.984v54.12h16.824c15.648 0 26.968-8.168 26.968-27.312zm-29.464 15.816V84.496h.832c7.832 0 13.992 2.656 13.992 15.312s-6.168 15.824-13.992 15.824h-.832zM32 112h16v16H32z"/><path d="M333.656 2.344A7.965 7.965 0 0 0 328 0H120C97.944 0 80 17.944 80 40H40C17.944 40 0 57.944 0 80v40c0 22.056 17.944 40 40 40h40v184c0 22.056 17.944 40 40 40h24c4.424 0 8-3.576 8-8s-3.576-8-8-8h-24c-13.232 0-24-10.768-24-24V160h152c22.056 0 40-17.944 40-40V80c0-22.056-17.944-40-40-40H96c0-13.232 10.768-24 24-24h192v48c0 22.056 17.944 40 40 40h48v240c0 13.232-10.768 24-24 24h-24c-4.424 0-8 3.576-8 8s3.576 8 8 8h24c22.056 0 40-17.944 40-40V88c0-2.128-.84-4.16-2.344-5.656l-80-80zM248 56c13.232 0 24 10.768 24 24v40c0 13.232-10.768 24-24 24H40c-13.232 0-24-10.768-24-24V80c0-13.232 10.768-24 24-24h208zm104 32c-13.232 0-24-10.768-24-24V19.312L396.688 88H352z"/><path d="M296 416c22.056 0 40-17.944 40-40v-80c0-22.056-17.944-40-40-40h-96c-22.056 0-40 17.944-40 40v80c0 22.056 17.944 40 40 40h96zm-120-40v-80c0-13.232 10.768-24 24-24h96c13.232 0 24 10.768 24 24v80c0 13.232-10.768 24-24 24h-96c-13.232 0-24-10.768-24-24z"/><path d="M252.568 360.128L248 360.12l-18.216-.056L248 328.184l24 42 3.576 5.88h18.208L248 295.936l-45.784 80.128h59.912z"/></svg>