<svg xmlns="http://www.w3.org/2000/svg" style="isolation:isolate" width="1017.2" height="708.3"><defs><clipPath id="a"><path d="M0 0h1017.2v708.3H0z"/></clipPath></defs><g clip-path="url(#a)"><path fill="#6C63FF" d="M594.237 111.392c-64.72-2.25-126.36-23.14-185.23-46-58.87-22.86-117.16-48.19-180.33-60.25-40.63-7.79-87.09-8.89-119.83 12.89-31.5 21-41.68 57.15-47.16 90.72-4.11 25.27-6.54 51.85 4.75 75.5 7.83 16.42 21.74 30.22 31.36 45.95 33.46 54.72 9.81 122.2-26.46 175.63-17 25.06-36.74 49-49.87 75.66-13.13 26.66-19.2 57.25-7.72 84.47 11.39 27 38.52 47.24 67.9 61.49 59.69 28.94 130 37.23 198.62 41.92 151.82 10.39 304.46 5.89 456.68 1.39 56.34-1.67 112.92-3.36 168.34-12.07 30.78-4.84 62.56-12.52 84.9-31 28.36-23.53 35.39-63.38 16.39-92.88-31.88-49.49-120-61.79-142.31-114.9-12.27-29.23.33-61.8 18.15-88.91 38.24-58.17 102.33-109.19 105.71-175.68 2.32-45.66-28.49-91.39-76.13-113-49.94-22.65-119.18-19.8-156 17.69-37.96 38.51-104.62 53.36-161.76 51.38z" opacity=".1"/><path fill="#6C63FF" d="M86.347 328.352s-74.74-31.44-84.57 25.25c0 0-5.11 8.84 2 16.14 0 0 1.53-3.92 8.75.13a37.171 37.171 0 008.16 3.32 18.359 18.359 0 0011.62-.62s24.59-1.33 45.27-33.5c0 0 8.87-5.48 9.31-7.54l-14.82 1s1.14 10.85-5 17.36c0 0 5.44-16.84 2.83-17.31-.53-.1-7.83.86-7.83.86s1.89 18.87-8 28.63c0 0 9.18-19.19 5.19-28.29l-10.94 2.11s3 19.85-7.82 31.39c0 0 8.9-20.4 5.46-30.76l-10.47 3.52s2.52 19.41-6.53 29c0 0 7.9-24.61 4.18-28 0 0-9.42 3.82-11.43 6 0 0 1.49 14-4.26 19.05 0 0 3.53-17 1.78-17.7 0 0-10.94 8.24-14.28 15.35 0 0 4.16-10.86 12.91-17 0 0-7.35-1.24-13 1.83 0 0 3.78-7.21 15.65-3.79 0 0 8.79-6.09 10.55-6 0 0-11.23-5-19.34-4.38 0 0 8.7-5 22.08 3.35l10.45-3.77s-14.5-7.43-21.76-7.4c0 0 9.66-3.74 24.47 6.66l10.7-2.18s-12-7.35-20.09-9.06c0 0 9.7-1.54 23.18 8.55l7.31-.61s-8.85-5.22-11.53-6.49l-2.56-2.09a34.887 34.887 0 0117.16 8.26s15.16-.34 15.22-1.27zm-2.74-56.36s-26.51-61.27-64.63-33.17c0 0-8.06 2.34-8 10.7 0 0 3.14-1.46 5.13 5.07a30.115 30.115 0 003 6.61 15.003 15.003 0 007.25 6.25s15.37 13.22 46 5.89c0 0 8.4 1.79 9.83.83l-9.36-7.87s-5.51 7.1-12.89 7.44c0 0 12.83-6.9 11.55-8.67-.26-.36-5.15-3.94-5.15-3.94s-9.62 12.28-21 12.47c0 0 16.39-6.18 19.2-13.85l-7.7-5s-9.54 13.49-22.53 14.19c0 0 16.91-7.05 20.77-15.17l-8.23-3.87s-9.56 13-20.37 13.49c0 0 18.72-10.12 18.43-14.25 0 0-7.77-3.1-10.24-2.92 0 0-7.07 9.15-13.38 8.89 0 0 11.79-8.09 11.15-9.5 0 0-11.2-1.34-17.23 1 0 0 8.66-4.08 17.35-2.74 0 0-3.66-4.93-8.75-6.3 0 0 6.36-2.13 11.46 6.65 0 0 8.68 1.4 9.7 2.44 0 0-3.81-9.39-9-13.62 0 0 8 2 11.2 14.57l8.36 3.71s-4.38-12.68-8.72-16.79c0 0 7.87 3.28 10.75 17.9l7.6 4.79s-2.94-11.2-6.77-16.83c0 0 6.64 4.62 8.89 18.29l4.7 3.8s-2.29-8.14-3.16-10.42l-.33-2.7a28.648 28.648 0 015.49 14.68s9.04 8.46 9.63 7.95z" opacity=".1"/><linearGradient id="b" x1=".5" x2=".5" y1="1" gradientTransform="matrix(423.292 0 0 511.611 351.862 196.679)" gradientUnits="userSpaceOnUse"><stop offset="0%" stop-color="gray" stop-opacity=".25"/><stop offset="54%" stop-color="gray" stop-opacity=".12"/><stop offset="100%" stop-color="gray" stop-opacity=".1"/></linearGradient><path fill="url(#b)" d="M772.299 667.142c-1-3.62-2-7.29-4-10.44a36.296 36.296 0 00-6.56-7.17c-7.25-6.59-16.16-13.28-25.77-11.61a33.988 33.988 0 00-8.56 3.12c-1.4.65-2.81 1.3-4.25 1.85a21.2 21.2 0 01-12.83 1.12c-2.2-.59-4.25-1.65-6.42-2.31a20.68 20.68 0 00-3.16-.68 58.48 58.48 0 006.1-3.21c10.79-6.67 19.4-18.67 18.19-31.37-.4-4.3-1.88-8.41-3.34-12.46q-1.92-5.31-3.85-10.63c-1.66-4.61-3.37-9.3-6.41-13.13-3.38-4.26-8.18-7.15-13.14-9.31-10.66-4.63-22.31-6.26-33.81-7.84l-.8-.11v-124.24a8 8 0 00-8-8.05h-15.13l-2-12.23c-1.91-11.61-3.88-23.45-9.23-33.91-3.5-6.85-9.08-13.37-16.59-14.72a16.52 16.52 0 01-4.32-1c-2.2-1.08-3.4-3.48-5.1-5.26-4.36-4.57-11.45-4.64-17.3-7-5.16-2.05-9.38-5.92-14.08-8.89-4.7-2.97-10.55-5.09-15.76-3.15 0 .38-.07.75-.11 1.13l-3.34-1.5c-3.6-1.66-7.28-3.38-10.17-6.12-3.72-3.51-5.7-8.14-7.24-13.08-.16-.52-.31-1-.46-1.55a46.533 46.533 0 0012.44-23.77c.27.87.55 1.75.82 2.63.245.894.58 1.762 1 2.59.138.273.295.537.47.79.329.491.742.92 1.22 1.27a3.403 3.403 0 001.61.63c.278.039.561.039.84 0a4.622 4.622 0 003.36-2.87c.159-.393.276-.802.35-1.22.038-.252.062-.506.07-.76v-1.8c0-.2-.06-.4-.1-.59-.04-.19 0-.11 0-.16-.05-.26-.11-.51-.16-.77a.965.965 0 010-.17l-.15-.63-.09-.38v-.1c-.1-.39-.19-.79-.28-1.19a34.419 34.419 0 01-.55-10.57 114.422 114.422 0 012.86-15.36l.21-.91.24-1.06c.16-.72.31-1.44.46-2.16.13-.61.25-1.23.36-1.85.11-.62.19-1.09.27-1.64v-.2c.611-3.727.775-7.514.49-11.28-.47-5.23-2.09-10.18-5.65-14.13-2.51-2.79-5.81-4.85-8.14-7.78-2.19-2.75-3.42-6.13-5.68-8.82-6.25-7.46-22.28-13.21-32.12-14.21-11.27-1.14-29.48 1.74-38.56 8.4-3.36 2.46-5.66 6-8 9.37-4.3 6.26-9.19 12.5-16.08 16-2.61 1.32-5.59 2.32-7.32 4.62a12.57 12.57 0 00-2 5.19 102.094 102.094 0 00-2.06 19.8 24.396 24.396 0 001.1 8.6c.14.38.31.77.49 1.14.16.33.34.66.53 1l.12.21a41.598 41.598 0 013.21 5.45c.22.534.381 1.091.48 1.66a12.314 12.314 0 01-.28 4.39c0 .22-.08.43-.13.64l-.09.46c0 .14 0 .29-.08.43q-.12.65-.21 1.29c0 .3-.06.61-.07.92a7.509 7.509 0 00.69 3.6c.131.268.288.522.47.76.358.479.819.872 1.35 1.15 1.191.448 2.434.743 3.7.88 3.74.84 6.08 3.7 7.6 7.21.337.788.634 1.592.89 2.41a42.825 42.825 0 011.4 6.27c1.7-.09 2.69-1.59 3.29-3.23.187-.541.344-1.092.47-1.65.23-1.05.46-2.1.7-3.15a46.488 46.488 0 0018.26 20.12c.28.82.55 1.65.8 2.49 1.31 4.53 1.94 9.28-.33 13.24-1.62 2.81-4.35 4.55-7.39 5.75a4.893 4.893 0 00-1.65-1.41c-2.64-1.32-5.8.29-8 2.26-4 3.62-7.26 8.81-12.53 10-1.9.44-4 .35-5.59 1.51a12.908 12.908 0 00-2.59 3.41 11.933 11.933 0 01-10.24 5.1c-1.83-.09-4-.51-5.25.83-.93 1-1 2.59-2 3.54-1.35 1.32-3.54.67-5.42.59a9.996 9.996 0 00-7.25 3.14 17.064 17.064 0 00-4.36-10.9c-2.7-2.78-6.45-4.21-9.65-6.39-8-5.44-12-15-16.17-23.76-4.17-8.76-9.67-18-18.77-21.19-2.09-.74-5-.8-5.94 1.23a4.42 4.42 0 00-.15 2.65c.88 4.66 4.2 8.4 7.07 12.15 4.83 6.32 8.88 14.05 7.71 21.95-1.37 9.35-9.7 16.61-10.7 26-.44 4.14.61 8.3.6 12.46 0 2.6-.41 5.23.15 7.76a52.47 52.47 0 002.11 5.65 33.136 33.136 0 011.38 9.31q1.06 19.88 2.11 39.77c.53 9.89-1.63 19.65-3.81 29.38a92.156 92.156 0 00-6.26 18c-2.46 10.83-2.53 22.37 1 32.91 1.89 5.73 4.79 11.1 6.34 16.93 0 .13.06.25.09.37.15 1.24.32 2.48.55 3.71a35.61 35.61 0 001.11 4.2 29.885 29.885 0 002.2 6.87 19.214 19.214 0 006 7c-1.44 2.82-3.77 5.09-5.32 7.85-2.7 4.78-2.81 10.65-1.83 16.07 1.89 10.46 7.54 19.81 15 27.41a8.779 8.779 0 00-1 0 15.674 15.674 0 00-6.84 2.45c-15.79 9.23-24.82 29-21.52 47.1.65 3.54 1.78 7.12 4.14 9.81a15.56 15.56 0 007.29 4.47c1.748.526 3.549.861 5.37 1 12.31 1 24.23-4.71 36.57-5.19a98.48 98.48 0 0112.25.57q8.91.74 17.86.94c9.69.23 15.15-2.35 21.34-9.6a25.91 25.91 0 003.77-5.94c5.26-.3 11.07-.76 15.28-1.11l.06.59c.23 2 .58 4.3 2.18 5.57a7.788 7.788 0 003 1.22c10.11 2.49 20.34 5 30.74 5 4.884-.102 9.758-.479 14.6-1.13l18.3-2.11a93.228 93.228 0 0115.71 3.42c5.28 1.8 10.22 4.47 15.38 6.57 12 4.87 24.92 6.61 37.71 8.31 2.18.29 4.68.49 6.3-1 2.08-2 1.38-5.35.8-8.15-.24-1.14-.42-2.3-.57-3.46a173.46 173.46 0 0125.26 8.77l1.44.63c.41 2.18 2.43 3.93 4.36 6.28a15.845 15.845 0 002.21 2.73 7.248 7.248 0 003.17 1.15 148.124 148.124 0 0041 1.85 41.957 41.957 0 018.45-.29c2.069.28 4.111.742 6.1 1.38l11.58 3.31c8.53 2.45 17.28 4.92 26.13 4.37a34.739 34.739 0 005.34-.77c7-1.62 13.53-5.54 16.89-11.84 4.51-8.57 2.32-19.1-.25-28.46zm-339.66-156.41a36.407 36.407 0 01-3.34 12.51c-1.24 2.51-2.84 4.82-4 7.34-1.1 2.28-1.92 6.59-2.41 11.32-.6-.1-1.21-.19-1.81-.26.89-3.12 1.56-6.32 2.45-9.45 2.11-7.44 5.58-14.47 9.11-21.46z"/><path fill="#FBBEBE" d="M448.049 664.532c-2.11-4.8-4.11-10.32-2-15.12a12.845 12.845 0 016.65-6.25 31.984 31.984 0 019-2.22 125.606 125.606 0 0129.26-.4c.71 5.62-.79 11.32-2.08 16.75-1.17 5-1.84 5.74-7 6-3.34.18-33.04 3.01-33.83 1.24z"/><ellipse cx="537.099" cy="592.152" fill="#464353" rx="143" ry="40" vector-effect="non-scaling-stroke"/><ellipse cx="537.099" cy="592.152" opacity=".1" rx="143" ry="40" vector-effect="non-scaling-stroke"/><path fill="#FBBEBE" d="M562.739 380.992a44.492 44.492 0 01-22.94 20.84 57.589 57.589 0 01-18.16 3.46c-6.79.31-13.72-.13-20.1-2.45-8.56-3.1-15.67-9.44-21-16.83-5.33-7.39-9-15.83-12.19-24.34-1.68-4.43-3.28-9.15-2.49-13.83 5.15-1.17 10.79-2.89 13.45-7.46 2.27-3.92 1.64-8.62.33-13.1-.37-1.27-.8-2.53-1.23-3.74-1-2.9-4.45-8.41-2.05-10.89 1.53-1.57 7.94-2.37 10.15-3.39 6.81-3.14 13.09-7.68 20.57-9.17 6.47-1.29 13.15-.08 19.61 1.26.856.124 1.679.42 2.42.87a5.824 5.824 0 011.8 2.7c1.84 4.48 2.92 9.43 4.4 14.1 1.54 4.89 3.52 9.48 7.23 12.95 2.89 2.71 6.57 4.41 10.17 6.06l8.86 4.06a11.657 11.657 0 014.19 2.71 10.614 10.614 0 012 5.44 50.829 50.829 0 01-5.02 30.75z"/><path d="M535.269 319.022c-14.505 15.088-37.367 18.483-55.63 8.26-.37-1.27-.8-2.53-1.23-3.74-1-2.9-4.45-8.41-2.05-10.89 1.53-1.57 7.94-2.37 10.15-3.39 6.81-3.14 13.09-7.68 20.57-9.17 6.47-1.29 13.15-.08 19.61 1.26.856.124 1.679.42 2.42.87a5.824 5.824 0 011.8 2.7c1.8 4.48 2.88 9.43 4.36 14.1z" opacity=".1"/><circle cx="502.099" cy="285.152" r="46" fill="#FBBEBE" vector-effect="non-scaling-stroke"/><path fill="#F86D70" d="M642.249 434.442l-3.78-22.9c-1.91-11.49-3.88-23.2-9.22-33.55-3.51-6.78-9.08-13.24-16.59-14.58a16.066 16.066 0 01-4.32-1c-2.2-1.06-3.4-3.44-5.09-5.2-4.36-4.52-11.46-4.59-17.3-6.89-5.16-2-9.38-5.85-14.08-8.79-4.7-2.94-10.55-5-15.75-3.12-.84 8.95-1.73 18.1-5.53 26.25a39.28 39.28 0 01-59.26 14.76c-8.91-6.71-14.62-17.06-17.28-27.89-.65-2.64-1.39-5.67-3.82-6.88-2.63-1.32-5.79.28-8 2.22-4.05 3.59-7.27 8.73-12.53 9.94-1.9.44-4 .35-5.58 1.5a12.655 12.655 0 00-2.6 3.37 12 12 0 01-10.23 5.06c-1.83-.09-4-.51-5.25.82-.93 1-1 2.56-2 3.49-1.35 1.31-3.54.67-5.42.6-3.56-.15-6.87 2.13-8.91 5s-3 6.42-4 9.86c10.93 24.34 20.93 48.71 31.86 73.05.512.917.783 1.949.79 3a7.335 7.335 0 01-1.36 3c-5.36 8.61-5.19 19.44-4.6 29.56.59 10.12 1.31 20.81-3.21 29.88-1.23 2.49-2.83 4.77-4 7.26-2.74 5.64-3.73 23.68-2.13 29.74h226c-4.31-11.85-2.67-35.63-1.77-48.21.63-8.8-1-17.59-1.7-26.39-1.47-17.97-.37-35.02-3.34-52.96z"/><path fill="#464353" d="M653.819 555.002c3.33-1.27 7-.81 10.57-.33 11.49 1.57 23.15 3.18 33.8 7.77 5 2.14 9.76 5 13.14 9.21 3 3.79 4.75 8.43 6.41 13l3.84 10.49c1.46 4 2.94 8.08 3.35 12.33 1.2 12.59-7.41 24.46-18.24 31-10.83 6.54-23.58 8.87-36 11.31-12.42 2.44-24.89 5.14-37.26 8a150.17 150.17 0 01-17.53 3.45c-13.24 1.5-27.08-.71-39.66 3.67-5 1.75-9.91 4.35-15.1 5.56a94.047 94.047 0 01-10.43 1.68l-23.81 2.72a130.162 130.162 0 01-14.6 1.12c-10.4 0-20.63-2.46-30.73-4.92a7.783 7.783 0 01-3-1.21c-1.6-1.26-1.95-3.49-2.18-5.51q-1.53-13.41-2.68-26.85c-.24-2.91-.42-6.06 1.17-8.51 2-3 5.9-3.94 9.46-4.52a246.812 246.812 0 0145.68-3.17c5.81-5.81 15.39-5.84 23-9a68.487 68.487 0 008.11-4.41 105.996 105.996 0 0144.51-14.07 41.47 41.47 0 009.11-1.3c5.89-1.83 11.26-6.81 17.31-5.59.75-2.07 1.27-4.84 3-6.26.86-.73 1.92-1.22 2.71-2 1.67-1.69 1.82-4.35 1.57-6.71-.25-2.36-.81-4.78-.2-7.08a9.747 9.747 0 011.11-2.47c3.01-5.26 7.54-7.9 13.57-7.4z"/><path d="M653.819 555.002c3.33-1.27 7-.81 10.57-.33 11.49 1.57 23.15 3.18 33.8 7.77 5 2.14 9.76 5 13.14 9.21 3 3.79 4.75 8.43 6.41 13l3.84 10.49c1.46 4 2.94 8.08 3.35 12.33 1.2 12.59-7.41 24.46-18.24 31-10.83 6.54-23.58 8.87-36 11.31-12.42 2.44-24.89 5.14-37.26 8a150.17 150.17 0 01-17.53 3.45c-13.24 1.5-27.08-.71-39.66 3.67-5 1.75-9.91 4.35-15.1 5.56a94.047 94.047 0 01-10.43 1.68l-23.81 2.72a130.162 130.162 0 01-14.6 1.12c-10.4 0-20.63-2.46-30.73-4.92a7.783 7.783 0 01-3-1.21c-1.6-1.26-1.95-3.49-2.18-5.51q-1.53-13.41-2.68-26.85c-.24-2.91-.42-6.06 1.17-8.51 2-3 5.9-3.94 9.46-4.52a246.812 246.812 0 0145.68-3.17c5.81-5.81 15.39-5.84 23-9a68.487 68.487 0 008.11-4.41 105.996 105.996 0 0144.51-14.07 41.47 41.47 0 009.11-1.3c5.89-1.83 11.26-6.81 17.31-5.59.75-2.07 1.27-4.84 3-6.26.86-.73 1.92-1.22 2.71-2 1.67-1.69 1.82-4.35 1.57-6.71-.25-2.36-.81-4.78-.2-7.08a9.747 9.747 0 011.11-2.47c3.01-5.26 7.54-7.9 13.57-7.4z" opacity=".05"/><path fill="#3F3D56" d="M457.249 670.712c-6.19 7.17-11.64 9.73-21.33 9.5q-8.94-.21-17.86-.93c-4.065-.44-8.153-.63-12.24-.57-12.34.48-24.25 6.13-36.56 5.14a25.919 25.919 0 01-5.37-1 15.623 15.623 0 01-7.25-4.41c-2.36-2.67-3.49-6.21-4.14-9.71-3.29-17.94 5.73-37.48 21.52-46.61a15.766 15.766 0 016.84-2.43c2.39-.01 4.753.509 6.92 1.52l.15.06a52.321 52.321 0 0117.14 11.44 9.666 9.666 0 002.62 2.11 9.01 9.01 0 003.09.58l13.14.83c2.226.066 4.438.371 6.6.91a52.513 52.513 0 016.94 3c7.07 3.16 14.91 4 22.55 5.22a3.376 3.376 0 012 .8c.304.379.517.824.62 1.3a25.513 25.513 0 01-5.38 23.25z"/><path d="M387.889 621.272a78.855 78.855 0 00-13.15 16.44 82.271 82.271 0 00-10.74 32.54 60.33 60.33 0 00-.11 12.61 15.624 15.624 0 01-7.25-4.42c-2.36-2.67-3.49-6.21-4.14-9.71-3.29-17.94 5.73-37.48 21.52-46.61a15.766 15.766 0 016.84-2.43c2.39-.01 4.753.509 6.92 1.52l.11.06z" opacity=".1"/><path fill="#FBBEBE" d="M642.379 646.142c7.35-.2 15.6-.57 21 4.38 5.15 4.68 5.83 12.4 6.17 19.35l.39 8.07c.12 2.46.22 5-.77 7.28-1.76 4-6.59 5.93-11 5.7-4.41-.23-8.46-2.16-12.49-3.9a175.656 175.656 0 00-34-10.71q.57-8.37 1.9-16.66c.61-3.83.71-10.24 3.27-13.42 2.71-3.36 6.24-1.54 9.92-.92a79.622 79.622 0 0015.61.83z"/><path fill="#464353" d="M448.159 565.062c0 1-1.57 0-1.71-1.07-1.1-8.09-7.52-14.76-15-18s-16-3.41-24.1-2.64c-12.25 1.16-25.95 5.85-30.48 17.3-1.06 2.68-1.54 5.58-2.84 8.15-1.44 2.82-3.79 5.07-5.35 7.81-2.69 4.74-2.8 10.55-1.83 15.91 2.61 14.3 12.39 26.53 24.24 35 11.85 8.47 25.7 13.53 39.51 18.09a685.19 685.19 0 00112 26.75c6.16.93 12.38 1.79 18.28 3.77 5.28 1.77 10.22 4.42 15.38 6.5 12 4.82 24.91 6.54 37.7 8.23 2.18.28 4.68.48 6.29-1 2.08-1.93 1.39-5.29.8-8.06a43.347 43.347 0 015.09-30.74c2.14-3.6 4.92-7.29 4.52-11.46-.48-4.86-5.32-8.3-10.14-9.08-4.82-.78-9.72.37-14.56 1-1.67.22-3.49.36-5-.49a9.868 9.868 0 01-1.94-1.72 21.93 21.93 0 00-25.54-3.57c-1.79 1-4.5-1.23-6.36-2.07l-21.01-9.53c-24.16-10.93-48.44-21.91-74-28.83a15.539 15.539 0 01-5.7-2.37c-1.27-1-2.18-2.36-3.35-3.47-2.55-2.41-6.1-3.37-9.16-5.08-3.06-1.71-6.46-5.9-5.74-9.33z"/><path fill="#3F3D56" d="M772.349 695.752c-3.36 6.23-9.88 10.11-16.88 11.71-1.757.396-3.543.65-5.34.76-8.85.55-17.59-1.9-26.12-4.32l-11.58-3.28a36.497 36.497 0 00-6.1-1.36 41.86 41.86 0 00-8.44.29 149.603 149.603 0 01-41-1.84 7.225 7.225 0 01-3.17-1.13 15.752 15.752 0 01-2.21-2.71c-3.15-3.79-6.54-6-2.81-11 2.15-2.9 6.14-4.35 7.81-7.68s.6-8.06-.39-11.5c-1.35-4.75-5.79-6.8-7.38-11.16-1.19-3.29.81-7.11 3.82-8.9s6.73-1.93 10.2-1.47c3.47.46 6.87 1.44 10.36 1.71 10.26.82 20.75-4.47 30.6-1.49 2.17.66 4.22 1.71 6.42 2.29 4.288.959 8.769.572 12.83-1.11 1.44-.54 2.85-1.19 4.25-1.83a34.185 34.185 0 018.55-3.09c9.61-1.65 18.52 5 25.77 11.49a36.457 36.457 0 016.55 7.1c2 3.12 3.06 6.75 4 10.33 2.65 9.27 4.84 19.69.26 28.19z"/><path d="M772.349 695.752c-3.36 6.23-9.88 10.11-16.88 11.71a32.703 32.703 0 003.55-17.16c-.6-9.51-4.78-18.47-10.11-26.37a93.387 93.387 0 00-11.14-13.57c-3.18-3.2-7.09-5.74-10.51-8.67a34.185 34.185 0 018.55-3.09c9.61-1.65 18.52 5 25.77 11.49a36.457 36.457 0 016.55 7.1c2 3.12 3.06 6.75 4 10.33 2.61 9.31 4.8 19.73.22 28.23z" opacity=".1"/><path fill="#3F3D56" d="M470.319 210.492c-3.36 2.43-5.66 5.92-8 9.27-4.31 6.19-9.19 12.37-16.08 15.82-2.61 1.31-5.59 2.3-7.32 4.58a12.327 12.327 0 00-1.95 5.13 101.62 101.62 0 00-2.06 19.6c0 3.28.14 6.66 1.59 9.64 1.37 2.8 3.84 5.17 4.35 8.22.39 2.38-.49 4.75-.8 7.14-.31 2.39.23 5.22 2.44 6.36 1.19.448 2.434.74 3.7.87 6.65 1.48 8.88 9.28 9.89 15.73 2.26-.13 3.28-2.72 3.75-4.83l6.93-30.81c.75-3.34 2-7.21 5.33-8.38 2.23-.77 4.67-.05 7 .15 9.15.75 16.89-6.32 25.84-8.27a32.97 32.97 0 018.71-.57c7.06.35 15.27 3.25 16.77 9.84.25 1.07.4 2.35 1.4 2.88 1 .53 2 .08 3.1 0 4.48-.45 7.12 4.59 8.41 8.71l4.7 15c.7 2.27 1.88 4.94 4.34 5.23 2.27.28 4.2-1.87 4.54-4 .34-2.13-.4-4.34-.89-6.48-2.21-9.85 1.17-19.93 3.23-29.8 2.06-9.87 2.43-21.21-4.48-28.81-2.51-2.75-5.81-4.8-8.15-7.7-2.18-2.72-3.41-6.06-5.67-8.73-6.25-7.37-22.28-13.06-32.11-14-11.19-1.23-29.43 1.62-38.51 8.21z"/><path d="M552.399 294.792c-2.46-.3-3.64-3-4.34-5.23q-2.35-7.51-4.7-15c-1.29-4.13-3.93-9.17-8.41-8.71-1 .11-2.18.52-3.1 0-.92-.52-1.15-1.81-1.4-2.88-1.5-6.6-9.71-9.49-16.77-9.84-2.916-.192-5.845 0-8.71.57-9 2-16.69 9-25.84 8.27-2.36-.19-4.8-.91-7-.14-3.37 1.16-4.58 5-5.33 8.38l-6.93 30.8c-.47 2.12-1.49 4.71-3.75 4.83-1-6.44-3.24-14.24-9.89-15.72a15.728 15.728 0 01-3.7-.87 4.335 4.335 0 01-1.93-2.15c-.18.93-.39 1.86-.51 2.79-.3 2.38.23 5.22 2.44 6.36 1.19.448 2.434.74 3.7.87 6.65 1.48 8.88 9.28 9.89 15.73 2.26-.13 3.28-2.72 3.75-4.83l6.93-30.81c.75-3.34 2-7.21 5.33-8.38 2.23-.77 4.67-.05 7 .15 9.15.75 16.89-6.32 25.84-8.27a33.008 33.008 0 018.67-.57c7.06.35 15.27 3.25 16.77 9.84.25 1.07.4 2.35 1.4 2.88 1 .53 2 .08 3.1 0 4.48-.45 7.12 4.59 8.41 8.71q2.34 7.51 4.7 15c.7 2.27 1.88 4.94 4.34 5.23 2.27.28 4.2-1.87 4.54-4a13.607 13.607 0 00-.6-5.31 4.132 4.132 0 01-3.9 2.3zm-111.54-19.04c-.51-3.05-3-5.42-4.35-8.22a16.437 16.437 0 01-1.48-6c0 1.12-.1 2.24-.11 3.37 0 3.28.14 6.66 1.59 9.64 1.11 2.27 2.94 4.27 3.86 6.58.485-1.746.651-3.565.49-5.37zm118.42-21.28c-1.82 8.72-4.66 17.6-3.78 26.34.57-6.45 2.45-12.94 3.78-19.34a51.022 51.022 0 001.16-14.82 61.39 61.39 0 01-1.16 7.82z" opacity=".1"/><path fill="#FBBEBE" d="M444.799 478.642c-1.21 19.86-15.78 36.27-21.33 55.37-1.38 4.78-2.21 9.74-4.19 14.29-4 9.15-12.23 15.79-21 20.47a31.559 31.559 0 01-10.34 3.76 19.821 19.821 0 01-19.91-10.59c-2.29-4.65-2.61-10-4-15-1.55-5.77-4.45-11.09-6.34-16.76-3.48-10.43-3.41-21.85-1-32.57a99.959 99.959 0 0110.73-26.56c.7-1.23 1.41-2.45 2.14-3.66a83.116 83.116 0 016.93-10c6-7.23 13.71-12.79 21.34-18.27a4.993 4.993 0 012-1h.12c.86-.03 1.713.17 2.47.58a195.62 195.62 0 0130.35 16.44c3.44 2.29 8.87 4.85 10.67 8.75 1.8 3.9 1.62 10.51 1.36 14.75z"/><path fill="#F86D70" d="M405.099 387.252a10.335 10.335 0 00-2.22 3.55 167.838 167.838 0 00-14.1 57.62 5.772 5.772 0 01-.65 2.79 12.292 12.292 0 01-1.47 1.59 5.517 5.517 0 00.94 8c1.65-3.11 5.6-4.12 9.11-4.39 16.81-1.33 33.23 6.49 50.09 5.9-1.19-4.11-2.9-8.06-3.87-12.22-4.29-18.47 6.41-38.58-.15-56.37-1.31-3.56-3.5-7.06-6.95-8.62a18.496 18.496 0 00-4.45-1.18c-4.26-.77-12.74-4.06-16.86-2.74-1.52.49-2.12 1.92-3.38 2.78-1.87 1.23-4.41 1.66-6.04 3.29z"/><path d="M411.989 552.602a29.492 29.492 0 01-25 14.51 19.699 19.699 0 01-8-1.47c-6.39-2.82-10-9.8-11.34-16.66-1.34-6.86-.92-13.94-1.87-20.87-.76-5.52-2.38-10.88-3.22-16.39-2.06-13.63 2-27.09 4.89-40.66.7-1.23 1.41-2.45 2.14-3.66a83.116 83.116 0 016.93-10c6-7.23 13.71-12.79 21.34-18.27h-8a1.369 1.369 0 012.17.95c.79 7 10.66 14 12.81 20.8 1.33 4.18 2.93 8.28 4 12.54.843 3.628 1.484 7.3 1.92 11q2.13 15.53 4.24 31c1.77 12.59 3.29 26.2-3.01 37.18z" opacity=".1"/><path fill="#FBBEBE" d="M398.749 421.302l9.65-30.27c1.44-4.53 2.9-9.13 3.07-13.89.17-4.76-1.08-9.75-4.41-13.15-2.7-2.75-6.44-4.17-9.64-6.32-8-5.39-12-14.83-16.17-23.52-4.17-8.69-9.66-17.78-18.76-21-2.1-.74-5-.8-5.94 1.21a4.241 4.241 0 00-.15 2.62c.88 4.62 4.19 8.31 7.07 12 4.83 6.25 8.87 13.9 7.71 21.72-1.38 9.26-9.7 16.44-10.7 25.75-.44 4.1.61 8.21.6 12.34 0 2.56-.42 5.17.15 7.67a51.553 51.553 0 002.11 5.68c.89 2.99 1.355 6.09 1.38 9.21l2.11 39.36c1.14 21.29-10.41 42-7.23 63 .84 5.51 2.46 10.87 3.22 16.39 1 6.93.53 14 1.87 20.87 1.34 6.87 5 13.84 11.34 16.66a19.699 19.699 0 008 1.47 29.492 29.492 0 0025-14.51c6.3-11 4.78-24.59 3.06-37.13l-4.24-31c-.436-3.7-1.077-7.372-1.92-11-1.06-4.26-2.66-8.36-4-12.54-4.29-13.67-7.5-28.04-3.18-41.62z"/><path fill="#3f3d56" d="M448.569 423.652h207.06a7.974 7.974 0 017.97 7.97v126.06a7.974 7.974 0 01-7.97 7.97h-207.06a7.973 7.973 0 01-7.97-7.97v-126.06a7.973 7.973 0 017.97-7.97z"/><path d="M448.569 423.652h207.06a7.974 7.974 0 017.97 7.97v126.06a7.974 7.974 0 01-7.97 7.97h-207.06a7.973 7.973 0 01-7.97-7.97v-126.06a7.973 7.973 0 017.97-7.97z" opacity=".2"/><circle cx="551.599" cy="494.652" r="6" fill="#FFF" vector-effect="non-scaling-stroke"/><path fill="#3F3D56" d="M288.469 610.992h12.11c13.807 0 25 11.193 25 25v37.11h-62.11v-37.11c0-13.807 11.192-25 25-25z"/><path d="M288.469 610.992h12.11c13.807 0 25 11.193 25 25v37.11h-62.11v-37.11c0-13.807 11.192-25 25-25z" opacity=".1"/><circle cx="292.049" cy="619.692" r="4.97" fill="#3F3D56" vector-effect="non-scaling-stroke"/><circle cx="292.049" cy="613.482" r="4.97" fill="#3F3D56" vector-effect="non-scaling-stroke"/><circle cx="292.049" cy="607.272" r="4.97" fill="#3F3D56" vector-effect="non-scaling-stroke"/><circle cx="292.049" cy="601.062" r="4.97" fill="#3F3D56" vector-effect="non-scaling-stroke"/><circle cx="292.049" cy="594.852" r="4.97" fill="#3F3D56" vector-effect="non-scaling-stroke"/><circle cx="292.049" cy="588.642" r="4.97" fill="#3F3D56" vector-effect="non-scaling-stroke"/><circle cx="292.049" cy="582.432" r="4.97" fill="#3F3D56" vector-effect="non-scaling-stroke"/><circle cx="299.499" cy="584.912" r="4.97" fill="#3F3D56" vector-effect="non-scaling-stroke"/><circle cx="304.469" cy="582.432" r="4.97" fill="#3F3D56" vector-effect="non-scaling-stroke"/><circle cx="309.439" cy="579.942" r="4.97" fill="#3F3D56" vector-effect="non-scaling-stroke"/><circle cx="292.049" cy="576.212" r="4.97" fill="#3F3D56" vector-effect="non-scaling-stroke"/><circle cx="292.049" cy="570.002" r="4.97" fill="#3F3D56" vector-effect="non-scaling-stroke"/><circle cx="292.049" cy="563.792" r="4.97" fill="#3F3D56" vector-effect="non-scaling-stroke"/><circle cx="292.049" cy="557.582" r="4.97" fill="#3F3D56" vector-effect="non-scaling-stroke"/><path fill="#6C63FF" d="M312.639 541.552c-1.23.18-2.47.31-3.71.39a28.737 28.737 0 003.2-3.28 21.22 21.22 0 00-3-5.83 10.221 10.221 0 01-4 1.26c-1.23.18-2.47.32-3.71.4a68.8 68.8 0 004.75-5 21.1 21.1 0 106.67 12.02l-.2.04zm16.61 24.69a9.833 9.833 0 01-4.18 1.4c-1.23.18-2.47.31-3.71.39a36.582 36.582 0 003.68-3.82 12.44 12.44 0 104.21 2v.03z"/><circle cx="284.589" cy="584.912" r="4.97" fill="#3F3D56" vector-effect="non-scaling-stroke"/><circle cx="279.619" cy="582.432" r="4.97" fill="#3F3D56" vector-effect="non-scaling-stroke"/><circle cx="274.649" cy="579.942" r="4.97" fill="#3F3D56" vector-effect="non-scaling-stroke"/><path fill="#6C63FF" d="M254.839 566.242a9.779 9.779 0 004.18 1.4c1.23.18 2.47.31 3.71.39a35.408 35.408 0 01-3.68-3.82 12.44 12.44 0 11-4.21 2v.03z"/><path fill="#3F3D56" d="M288.469 614.722h12.11c13.807 0 25 11.193 25 25v32.87a4.241 4.241 0 01-4.24 4.24h-53.63a4.24 4.24 0 01-4.24-4.24v-32.87c0-13.807 11.192-25 25-25z"/><path d="M313.019 542.912a19.139 19.139 0 01-1.6 1.52c.57 0 1.13-.09 1.7-.15-.02-.46-.05-.92-.1-1.37zm-9.06-5.94c1.25-.08 2.48-.21 3.72-.39a12.007 12.007 0 003.23-.88c-.506-1-1.088-1.959-1.74-2.87a7.514 7.514 0 01-2 .85 28.914 28.914 0 01-3.21 3.29zm-30.55 10.67a21.08 21.08 0 0132.5-17.76l.32-.34a21.1 21.1 0 10-27.82 31.73 20.996 20.996 0 01-5-13.63zM321.359 570.512c1.24-.08 2.48-.21 3.71-.39a9.712 9.712 0 004.18-1.4 12.431 12.431 0 015 8.8c.048-.435.071-.872.07-1.31a12.382 12.382 0 00-5-10 9.833 9.833 0 01-4.18 1.4l-1 .12a25.426 25.426 0 01-2.78 2.78zm.5-4.24c.414.005.828.035 1.24.09.65-.69 1.29-1.43 1.94-2.15a12.399 12.399 0 00-15.6 12c0 .42 0 .83.06 1.24a12.42 12.42 0 0112.36-11.18zM262.729 570.512c-1.24-.08-2.48-.21-3.71-.39a9.646 9.646 0 01-4.18-1.4 12.424 12.424 0 00-5 8.8 11.239 11.239 0 01-.07-1.31 12.376 12.376 0 015-10 9.779 9.779 0 004.18 1.4l1 .12a23.546 23.546 0 002.78 2.78zm-.5-4.24c-.419.005-.836.035-1.25.09-.64-.69-1.28-1.43-1.93-2.15a12.402 12.402 0 0115.6 12c0 .42 0 .83-.06 1.24a12.42 12.42 0 00-12.36-11.18z" opacity=".1"/></g></svg>