<svg xmlns="http://www.w3.org/2000/svg" width="83.9" height="43.93" viewBox="0 0 83.9 43.93">
  <path id="Intersection_2" data-name="Intersection 2" d="M-4396.15,50.111l-3.775,9.389-3.2-1.3,4.633-11.6-3.861-5.793-.972-1.457,2.95-1.951,3.476,5.214,9.374-23.464v43.9Zm1.6-3.976,3.528,5.29V37.356Zm-36.323-8.829V59h-3.5V19.12l13.356,33.416,13.344-33.386V59h-3.5V37.338l-9.85,24.612Zm48.55,19.945,4.2-4.2,4.2,4.2-4.2,4.2Zm-73.75.5,11.792-17.709L-4457.825,26.5h17.6V30h-9.15l9.618,9.62-13.369,20.08Z" transform="translate(4457.825 -19.12)" fill="#fff"/>
</svg>
