<svg xmlns="http://www.w3.org/2000/svg" style="isolation:isolate" viewBox="514.939 519.635 50.122 40.729" width="50.122" height="40.729"><path d="M565.061 524.456a20.51 20.51 0 0 1-5.91 1.62 10.303 10.303 0 0 0 4.523-5.687 20.635 20.635 0 0 1-6.531 2.492 10.26 10.26 0 0 0-7.504-3.246c-5.68 0-10.286 4.602-10.286 10.281 0 .805.094 1.59.27 2.344-8.547-.43-16.121-4.523-21.195-10.746a10.24 10.24 0 0 0-1.39 5.172c0 3.566 1.812 6.715 4.573 8.562a10.254 10.254 0 0 1-4.66-1.289v.13c0 4.984 3.547 9.136 8.246 10.085a10.28 10.28 0 0 1-4.644.172c1.312 4.082 5.11 7.063 9.605 7.145a20.607 20.607 0 0 1-12.77 4.397c-.831 0-1.648-.047-2.449-.144a29.037 29.037 0 0 0 15.762 4.62c18.914 0 29.258-15.667 29.258-29.253 0-.446-.012-.895-.027-1.332a20.909 20.909 0 0 0 5.129-5.325v.002z" fill="#FFF"/></svg>
