<?xml version="1.0" encoding="UTF-8" standalone="no"?>
<!-- Generator: Gravit.io -->
<svg xmlns="http://www.w3.org/2000/svg" xmlns:xlink="http://www.w3.org/1999/xlink" style="isolation:isolate" viewBox="0 0 1017.2 708.3" width="1017.2" height="708.3"><defs><clipPath id="_clipPath_YjXtTrurL7e8Chqe4KkqV6hAyPofUFBe"><rect width="1017.2" height="708.3"/></clipPath></defs><g clip-path="url(#_clipPath_YjXtTrurL7e8Chqe4KkqV6hAyPofUFBe)"><g><g opacity="0.1"><path d=" M 594.237 111.392 C 529.517 109.142 467.877 88.252 409.007 65.392 C 350.137 42.532 291.847 17.202 228.677 5.142 C 188.047 -2.648 141.587 -3.748 108.847 18.032 C 77.347 39.032 67.167 75.182 61.687 108.752 C 57.577 134.022 55.147 160.602 66.437 184.252 C 74.267 200.672 88.177 214.472 97.797 230.202 C 131.257 284.922 107.607 352.402 71.337 405.832 C 54.337 430.892 34.597 454.832 21.467 481.492 C 8.337 508.152 2.267 538.742 13.747 565.962 C 25.137 592.962 52.267 613.202 81.647 627.452 C 141.337 656.392 211.647 664.682 280.267 669.372 C 432.087 679.762 584.727 675.262 736.947 670.762 C 793.287 669.092 849.867 667.402 905.287 658.692 C 936.067 653.852 967.847 646.172 990.187 627.692 C 1018.547 604.162 1025.577 564.312 1006.577 534.812 C 974.697 485.322 886.577 473.022 864.267 419.912 C 851.997 390.682 864.597 358.112 882.417 331.002 C 920.657 272.832 984.747 221.812 988.127 155.322 C 990.447 109.662 959.637 63.932 911.997 42.322 C 862.057 19.672 792.817 22.522 755.997 60.012 C 718.037 98.522 651.377 113.372 594.237 111.392 Z " fill="rgb(108,99,255)"/></g><g style="opacity:0.1;"><g opacity="0.1"><path d=" M 86.347 328.352 C 86.347 328.352 11.607 296.912 1.777 353.602 C 1.777 353.602 -3.333 362.442 3.777 369.742 C 3.777 369.742 5.307 365.822 12.527 369.872 C 15.106 371.298 17.845 372.413 20.687 373.192 C 24.525 374.251 28.604 374.033 32.307 372.572 L 32.307 372.572 C 32.307 372.572 56.897 371.242 77.577 339.072 C 77.577 339.072 86.447 333.592 86.887 331.532 L 72.067 332.532 C 72.067 332.532 73.207 343.382 67.067 349.892 C 67.067 349.892 72.507 333.052 69.897 332.582 C 69.367 332.482 62.067 333.442 62.067 333.442 C 62.067 333.442 63.957 352.312 54.067 362.072 C 54.067 362.072 63.247 342.882 59.257 333.782 L 48.317 335.892 C 48.317 335.892 51.317 355.742 40.497 367.282 C 40.497 367.282 49.397 346.882 45.957 336.522 L 35.487 340.042 C 35.487 340.042 38.007 359.452 28.957 369.042 C 28.957 369.042 36.857 344.432 33.137 341.042 C 33.137 341.042 23.717 344.862 21.707 347.042 C 21.707 347.042 23.197 361.042 17.447 366.092 C 17.447 366.092 20.977 349.092 19.227 348.392 C 19.227 348.392 8.287 356.632 4.947 363.742 C 4.947 363.742 9.107 352.882 17.857 346.742 C 17.857 346.742 10.507 345.502 4.857 348.572 C 4.857 348.572 8.637 341.362 20.507 344.782 C 20.507 344.782 29.297 338.692 31.057 338.782 C 31.057 338.782 19.827 333.782 11.717 334.402 C 11.717 334.402 20.417 329.402 33.797 337.752 L 44.247 333.982 C 44.247 333.982 29.747 326.552 22.487 326.582 C 22.487 326.582 32.147 322.842 46.957 333.242 L 57.657 331.062 C 57.657 331.062 45.657 323.712 37.567 322.002 C 37.567 322.002 47.267 320.462 60.747 330.552 L 68.057 329.942 C 68.057 329.942 59.207 324.722 56.527 323.452 C 56.527 323.452 53.967 321.362 53.967 321.362 C 60.342 322.471 66.284 325.33 71.127 329.622 C 71.127 329.622 86.287 329.282 86.347 328.352 Z " fill="rgb(108,99,255)"/></g></g><g style="opacity:0.1;"><g opacity="0.1"><path d=" M 83.607 271.992 C 83.607 271.992 57.097 210.722 18.977 238.822 C 18.977 238.822 10.917 241.162 10.977 249.522 C 10.977 249.522 14.117 248.062 16.107 254.592 C 16.837 256.908 17.844 259.128 19.107 261.202 C 20.776 264.021 23.323 266.216 26.357 267.452 L 26.357 267.452 C 26.357 267.452 41.727 280.672 72.357 273.342 C 72.357 273.342 80.757 275.132 82.187 274.172 L 72.827 266.302 C 72.827 266.302 67.317 273.402 59.937 273.742 C 59.937 273.742 72.767 266.842 71.487 265.072 C 71.227 264.712 66.337 261.132 66.337 261.132 C 66.337 261.132 56.717 273.412 45.337 273.602 C 45.337 273.602 61.727 267.422 64.537 259.752 L 56.837 254.752 C 56.837 254.752 47.297 268.242 34.307 268.942 C 34.307 268.942 51.217 261.892 55.077 253.772 L 46.847 249.902 C 46.847 249.902 37.287 262.902 26.477 263.392 C 26.477 263.392 45.197 253.272 44.907 249.142 C 44.907 249.142 37.137 246.042 34.667 246.222 C 34.667 246.222 27.597 255.372 21.287 255.112 C 21.287 255.112 33.077 247.022 32.437 245.612 C 32.437 245.612 21.237 244.272 15.207 246.612 C 15.207 246.612 23.867 242.532 32.557 243.872 C 32.557 243.872 28.897 238.942 23.807 237.572 C 23.807 237.572 30.167 235.442 35.267 244.222 C 35.267 244.222 43.947 245.622 44.967 246.662 C 44.967 246.662 41.157 237.272 35.967 233.042 C 35.967 233.042 43.967 235.042 47.167 247.612 L 55.527 251.322 C 55.527 251.322 51.147 238.642 46.807 234.532 C 46.807 234.532 54.677 237.812 57.557 252.432 L 65.157 257.222 C 65.157 257.222 62.217 246.022 58.387 240.392 C 58.387 240.392 65.027 245.012 67.277 258.682 L 71.977 262.482 C 71.977 262.482 69.687 254.342 68.817 252.062 C 68.817 252.062 68.487 249.362 68.487 249.362 C 71.646 253.65 73.547 258.733 73.977 264.042 C 73.977 264.042 83.017 272.502 83.607 271.992 Z " fill="rgb(108,99,255)"/></g></g><g><linearGradient id="_lgradient_2" x1="0.49988329957572386" y1="1.000004703671138" x2="0.4998832995757239" y2="-0.00007202501723879706" gradientTransform="matrix(423.292,0,0,511.611,351.862,196.679)" gradientUnits="userSpaceOnUse"><stop offset="0%" stop-opacity="0.25" style="stop-color:rgb(128,128,128)"/><stop offset="54%" stop-opacity="0.12" style="stop-color:rgb(128,128,128)"/><stop offset="100%" stop-opacity="0.1" style="stop-color:rgb(128,128,128)"/></linearGradient><path d=" M 772.299 667.142 C 771.299 663.522 770.299 659.852 768.299 656.702 C 766.443 654.028 764.237 651.617 761.739 649.532 C 754.489 642.942 745.579 636.252 735.969 637.922 C 732.988 638.573 730.109 639.623 727.409 641.042 C 726.009 641.692 724.599 642.342 723.159 642.892 C 719.101 644.587 714.618 644.978 710.329 644.012 C 708.129 643.422 706.079 642.362 703.909 641.702 C 702.875 641.393 701.818 641.166 700.749 641.022 C 702.844 640.073 704.88 639.001 706.849 637.812 C 717.639 631.142 726.249 619.142 725.039 606.442 C 724.639 602.142 723.159 598.032 721.699 593.982 Q 719.779 588.672 717.849 583.352 C 716.189 578.742 714.479 574.052 711.439 570.222 C 708.059 565.962 703.259 563.072 698.299 560.912 C 687.639 556.282 675.989 554.652 664.489 553.072 L 663.689 552.962 L 663.689 428.722 C 663.702 426.591 662.865 424.544 661.363 423.033 C 659.861 421.522 657.819 420.672 655.689 420.672 L 640.559 420.672 Q 639.559 414.552 638.559 408.442 C 636.649 396.832 634.679 384.992 629.329 374.532 C 625.829 367.682 620.249 361.162 612.739 359.812 C 611.26 359.674 609.807 359.338 608.419 358.812 C 606.219 357.732 605.019 355.332 603.319 353.552 C 598.959 348.982 591.869 348.912 586.019 346.552 C 580.859 344.502 576.639 340.632 571.939 337.662 C 567.239 334.692 561.389 332.572 556.179 334.512 C 556.179 334.892 556.109 335.262 556.069 335.642 L 552.729 334.142 C 549.129 332.482 545.449 330.762 542.559 328.022 C 538.839 324.512 536.859 319.882 535.319 314.942 C 535.159 314.422 535.009 313.942 534.859 313.392 C 541.249 306.862 545.576 298.595 547.299 289.622 C 547.569 290.492 547.849 291.372 548.119 292.252 C 548.364 293.146 548.699 294.014 549.119 294.842 C 549.257 295.115 549.414 295.379 549.589 295.632 C 549.918 296.123 550.331 296.552 550.809 296.902 C 551.282 297.247 551.837 297.464 552.419 297.532 C 552.697 297.571 552.98 297.571 553.259 297.532 C 554.793 297.208 556.058 296.127 556.619 294.662 C 556.778 294.269 556.895 293.86 556.969 293.442 C 557.007 293.19 557.031 292.936 557.039 292.682 C 557.039 292.602 557.039 292.522 557.039 292.442 C 557.039 292.362 557.039 292.092 557.039 291.922 C 557.039 291.752 557.039 291.732 557.039 291.642 C 557.039 291.552 557.039 291.302 557.039 291.142 L 557.039 290.882 C 557.039 290.682 556.979 290.482 556.939 290.292 C 556.899 290.102 556.939 290.182 556.939 290.132 C 556.889 289.872 556.829 289.622 556.779 289.362 C 556.774 289.305 556.774 289.248 556.779 289.192 L 556.629 288.562 L 556.539 288.182 L 556.539 288.082 L 556.539 288.082 C 556.439 287.692 556.349 287.292 556.259 286.892 C 555.532 283.418 555.346 279.852 555.709 276.322 C 556.311 271.143 557.267 266.011 558.569 260.962 L 558.779 260.052 L 559.019 258.992 C 559.179 258.272 559.329 257.552 559.479 256.832 L 559.479 256.832 C 559.609 256.222 559.729 255.602 559.839 254.982 C 559.949 254.362 560.029 253.892 560.109 253.342 C 560.109 253.272 560.109 253.212 560.109 253.142 C 560.72 249.415 560.884 245.628 560.599 241.862 L 560.599 241.862 C 560.129 236.632 558.509 231.682 554.949 227.732 C 552.439 224.942 549.139 222.882 546.809 219.952 C 544.619 217.202 543.389 213.822 541.129 211.132 C 534.879 203.672 518.849 197.922 509.009 196.922 C 497.739 195.782 479.529 198.662 470.449 205.322 C 467.089 207.782 464.789 211.322 462.449 214.692 C 458.149 220.952 453.259 227.192 446.369 230.692 C 443.759 232.012 440.779 233.012 439.049 235.312 C 438.003 236.871 437.32 238.644 437.049 240.502 C 435.719 247.019 435.029 253.651 434.989 260.302 C 434.839 263.211 435.212 266.124 436.089 268.902 C 436.229 269.282 436.399 269.672 436.579 270.042 L 436.579 270.042 C 436.739 270.372 436.919 270.702 437.109 271.042 L 437.229 271.252 C 438.435 272.984 439.509 274.806 440.439 276.702 C 440.659 277.236 440.82 277.793 440.919 278.362 C 441.09 279.83 440.995 281.317 440.639 282.752 L 440.639 282.752 C 440.639 282.972 440.559 283.182 440.509 283.392 L 440.419 283.852 C 440.419 283.992 440.419 284.142 440.339 284.282 Q 440.219 284.932 440.129 285.572 C 440.129 285.872 440.069 286.182 440.059 286.492 C 439.988 287.73 440.225 288.967 440.749 290.092 C 440.88 290.36 441.037 290.614 441.219 290.852 C 441.577 291.331 442.038 291.724 442.569 292.002 C 443.76 292.45 445.003 292.745 446.269 292.882 C 450.009 293.722 452.349 296.582 453.869 300.092 C 454.206 300.88 454.503 301.684 454.759 302.502 C 455.382 304.554 455.85 306.65 456.159 308.772 C 457.859 308.682 458.849 307.182 459.449 305.542 C 459.636 305.001 459.793 304.45 459.919 303.892 C 460.149 302.842 460.379 301.792 460.619 300.742 C 464.566 309.117 470.924 316.123 478.879 320.862 C 479.159 321.682 479.429 322.512 479.679 323.352 C 480.989 327.882 481.619 332.632 479.349 336.592 C 477.729 339.402 474.999 341.142 471.959 342.342 C 471.521 341.754 470.957 341.272 470.309 340.932 C 467.669 339.612 464.509 341.222 462.309 343.192 C 458.309 346.812 455.049 352.002 449.779 353.192 C 447.879 353.632 445.779 353.542 444.189 354.702 C 443.142 355.687 442.266 356.839 441.599 358.112 C 439.276 361.444 435.417 363.366 431.359 363.212 C 429.529 363.122 427.359 362.702 426.109 364.042 C 425.179 365.042 425.109 366.632 424.109 367.582 C 422.759 368.902 420.569 368.252 418.689 368.172 C 415.943 368.179 413.322 369.314 411.439 371.312 C 411.32 367.277 409.776 363.415 407.079 360.412 C 404.379 357.632 400.629 356.202 397.429 354.022 C 389.429 348.582 385.429 339.022 381.259 330.262 C 377.089 321.502 371.589 312.262 362.489 309.072 C 360.399 308.332 357.489 308.272 356.549 310.302 C 356.229 311.149 356.176 312.074 356.399 312.952 C 357.279 317.612 360.599 321.352 363.469 325.102 C 368.299 331.422 372.349 339.152 371.179 347.052 C 369.809 356.402 361.479 363.662 360.479 373.052 C 360.039 377.192 361.089 381.352 361.079 385.512 C 361.079 388.112 360.669 390.742 361.229 393.272 C 361.823 395.194 362.528 397.08 363.339 398.922 C 364.24 401.944 364.704 405.079 364.719 408.232 Q 365.779 428.112 366.829 448.002 C 367.359 457.892 365.199 467.652 363.019 477.382 C 360.316 483.149 358.218 489.182 356.759 495.382 C 354.299 506.212 354.229 517.752 357.759 528.292 C 359.649 534.022 362.549 539.392 364.099 545.222 C 364.099 545.352 364.159 545.472 364.189 545.592 C 364.339 546.832 364.509 548.072 364.739 549.302 C 365.023 550.723 365.394 552.126 365.849 553.502 C 366.302 555.872 367.041 558.179 368.049 560.372 C 369.451 563.157 371.51 565.56 374.049 567.372 C 372.609 570.192 370.279 572.462 368.729 575.222 C 366.029 580.002 365.919 585.872 366.899 591.292 C 368.789 601.752 374.439 611.102 381.899 618.702 C 381.565 618.683 381.232 618.683 380.899 618.702 C 378.458 618.972 376.115 619.811 374.059 621.152 C 358.269 630.382 349.239 650.152 352.539 668.252 C 353.189 671.792 354.319 675.372 356.679 678.062 C 358.643 680.203 361.169 681.752 363.969 682.532 C 365.717 683.058 367.518 683.393 369.339 683.532 C 381.649 684.532 393.569 678.822 405.909 678.342 C 410 678.277 414.091 678.468 418.159 678.912 Q 427.069 679.652 436.019 679.852 C 445.709 680.082 451.169 677.502 457.359 670.252 C 458.88 668.453 460.148 666.454 461.129 664.312 C 466.389 664.012 472.199 663.552 476.409 663.202 L 476.469 663.792 C 476.699 665.792 477.049 668.092 478.649 669.362 C 479.552 669.974 480.574 670.39 481.649 670.582 C 491.759 673.072 501.989 675.582 512.389 675.582 C 517.273 675.48 522.147 675.103 526.989 674.452 L 545.289 672.342 C 550.614 673.027 555.87 674.172 560.999 675.762 C 566.279 677.562 571.219 680.232 576.379 682.332 C 588.379 687.202 601.299 688.942 614.089 690.642 C 616.269 690.932 618.769 691.132 620.389 689.642 C 622.469 687.642 621.769 684.292 621.189 681.492 C 620.949 680.352 620.769 679.192 620.619 678.032 C 629.252 680.301 637.697 683.233 645.879 686.802 L 647.319 687.432 C 647.729 689.612 649.749 691.362 651.679 693.712 C 652.312 694.701 653.053 695.616 653.889 696.442 C 654.84 697.069 655.926 697.463 657.059 697.592 C 670.573 700.108 684.372 700.731 698.059 699.442 C 700.858 699.061 703.689 698.964 706.509 699.152 C 708.578 699.432 710.62 699.894 712.609 700.532 L 724.189 703.842 C 732.719 706.292 741.469 708.762 750.319 708.212 C 752.116 708.094 753.901 707.837 755.659 707.442 C 762.659 705.822 769.189 701.902 772.549 695.602 C 777.059 687.032 774.869 676.502 772.299 667.142 Z  M 432.639 510.732 C 432.282 515.068 431.151 519.305 429.299 523.242 C 428.059 525.752 426.459 528.062 425.299 530.582 C 424.199 532.862 423.379 537.172 422.889 541.902 C 422.289 541.802 421.679 541.712 421.079 541.642 C 421.969 538.522 422.639 535.322 423.529 532.192 C 425.639 524.752 429.109 517.722 432.639 510.732 Z " fill="url(#_lgradient_2)"/><path d=" M 448.049 664.532 C 445.939 659.732 443.939 654.212 446.049 649.412 C 447.426 646.585 449.792 644.361 452.699 643.162 C 455.575 641.989 458.607 641.241 461.699 640.942 C 471.403 639.669 481.223 639.535 490.959 640.542 C 491.669 646.162 490.169 651.862 488.879 657.292 C 487.709 662.292 487.039 663.032 481.879 663.292 C 478.539 663.472 448.839 666.302 448.049 664.532 Z " fill="rgb(251,190,190)"/><ellipse vector-effect="non-scaling-stroke" cx="537.0985193223197" cy="592.1518622244632" rx="143" ry="40" fill="rgb(70,67,83)"/><g opacity="0.1"><ellipse vector-effect="non-scaling-stroke" cx="537.0985193223197" cy="592.1518622244632" rx="143" ry="40" fill="rgb(0,0,0)"/></g><path d=" M 562.739 380.992 C 557.837 390.464 549.696 397.859 539.799 401.832 C 533.971 403.956 527.839 405.124 521.639 405.292 C 514.849 405.602 507.919 405.162 501.539 402.842 C 492.979 399.742 485.869 393.402 480.539 386.012 C 475.209 378.622 471.539 370.182 468.349 361.672 C 466.669 357.242 465.069 352.522 465.859 347.842 C 471.009 346.672 476.649 344.952 479.309 340.382 C 481.579 336.462 480.949 331.762 479.639 327.282 C 479.269 326.012 478.839 324.752 478.409 323.542 C 477.409 320.642 473.959 315.132 476.359 312.652 C 477.889 311.082 484.299 310.282 486.509 309.262 C 493.319 306.122 499.599 301.582 507.079 300.092 C 513.549 298.802 520.229 300.012 526.689 301.352 C 527.545 301.476 528.368 301.772 529.109 302.222 C 529.952 302.933 530.577 303.869 530.909 304.922 C 532.749 309.402 533.829 314.352 535.309 319.022 C 536.849 323.912 538.829 328.502 542.539 331.972 C 545.429 334.682 549.109 336.382 552.709 338.032 L 561.569 342.092 C 563.145 342.682 564.574 343.607 565.759 344.802 C 566.917 346.394 567.61 348.278 567.759 350.242 C 569.346 360.765 567.59 371.52 562.739 380.992 L 562.739 380.992 Z " fill="rgb(251,190,190)"/><g opacity="0.1"><path d=" M 535.269 319.022 C 520.764 334.11 497.902 337.505 479.639 327.282 C 479.269 326.012 478.839 324.752 478.409 323.542 C 477.409 320.642 473.959 315.132 476.359 312.652 C 477.889 311.082 484.299 310.282 486.509 309.262 C 493.319 306.122 499.599 301.582 507.079 300.092 C 513.549 298.802 520.229 300.012 526.689 301.352 C 527.545 301.476 528.368 301.772 529.109 302.222 C 529.952 302.933 530.577 303.869 530.909 304.922 C 532.709 309.402 533.789 314.352 535.269 319.022 Z " fill="rgb(0,0,0)"/></g><circle vector-effect="non-scaling-stroke" cx="502.0985193223198" cy="285.1518622244633" r="46" fill="rgb(251,190,190)"/><path d=" M 642.249 434.442 L 638.469 411.542 C 636.559 400.052 634.589 388.342 629.249 377.992 C 625.739 371.212 620.169 364.752 612.659 363.412 C 611.179 363.28 609.725 362.943 608.339 362.412 C 606.139 361.352 604.939 358.972 603.249 357.212 C 598.889 352.692 591.789 352.622 585.949 350.322 C 580.789 348.322 576.569 344.472 571.869 341.532 C 567.169 338.592 561.319 336.532 556.119 338.412 C 555.279 347.362 554.389 356.512 550.589 364.662 C 545.579 375.408 535.985 383.316 524.48 386.181 C 512.976 389.047 500.793 386.563 491.329 379.422 C 482.419 372.712 476.709 362.362 474.049 351.532 C 473.399 348.892 472.659 345.862 470.229 344.652 C 467.599 343.332 464.439 344.932 462.229 346.872 C 458.179 350.462 454.959 355.602 449.699 356.812 C 447.799 357.252 445.699 357.162 444.119 358.312 C 443.068 359.281 442.189 360.42 441.519 361.682 C 439.18 364.986 435.334 366.889 431.289 366.742 C 429.459 366.652 427.289 366.232 426.039 367.562 C 425.109 368.562 425.039 370.122 424.039 371.052 C 422.689 372.362 420.499 371.722 418.619 371.652 C 415.059 371.502 411.749 373.782 409.709 376.652 C 407.669 379.522 406.709 383.072 405.709 386.512 C 416.639 410.852 426.639 435.222 437.569 459.562 C 438.081 460.479 438.352 461.511 438.359 462.562 C 438.139 463.652 437.674 464.678 436.999 465.562 C 431.639 474.172 431.809 485.002 432.399 495.122 C 432.989 505.242 433.709 515.932 429.189 525.002 C 427.959 527.492 426.359 529.772 425.189 532.262 C 422.449 537.902 421.459 555.942 423.059 562.002 L 649.059 562.002 C 644.749 550.152 646.389 526.372 647.289 513.792 C 647.919 504.992 646.289 496.202 645.589 487.402 C 644.119 469.432 645.219 452.382 642.249 434.442 Z " fill="rgb(248,109,112)"/><path d=" M 653.819 555.002 C 657.149 553.732 660.819 554.192 664.389 554.672 C 675.879 556.242 687.539 557.852 698.189 562.442 C 703.189 564.582 707.949 567.442 711.329 571.652 C 714.329 575.442 716.079 580.082 717.739 584.652 L 721.579 595.142 C 723.039 599.142 724.519 603.222 724.929 607.472 C 726.129 620.062 717.519 631.932 706.689 638.472 C 695.859 645.012 683.109 647.342 670.689 649.782 C 658.269 652.222 645.799 654.922 633.429 657.782 C 627.659 659.279 621.805 660.431 615.899 661.232 C 602.659 662.732 588.819 660.522 576.239 664.902 C 571.239 666.652 566.329 669.252 561.139 670.462 C 557.696 671.217 554.214 671.778 550.709 672.142 L 526.899 674.862 C 522.057 675.509 517.182 675.883 512.299 675.982 C 501.899 675.982 491.669 673.522 481.569 671.062 C 480.495 670.873 479.473 670.461 478.569 669.852 C 476.969 668.592 476.619 666.362 476.389 664.342 Q 474.859 650.932 473.709 637.492 C 473.469 634.582 473.289 631.432 474.879 628.982 C 476.879 625.982 480.779 625.042 484.339 624.462 C 499.434 621.992 514.727 620.931 530.019 621.292 C 535.829 615.482 545.409 615.452 553.019 612.292 C 555.818 611.006 558.528 609.533 561.129 607.882 C 574.735 599.943 589.941 595.136 605.639 593.812 C 608.714 593.718 611.77 593.282 614.749 592.512 C 620.639 590.682 626.009 585.702 632.059 586.922 C 632.809 584.852 633.329 582.082 635.059 580.662 C 635.919 579.932 636.979 579.442 637.769 578.662 C 639.439 576.972 639.589 574.312 639.339 571.952 C 639.089 569.592 638.529 567.172 639.139 564.872 C 639.392 564.001 639.766 563.17 640.249 562.402 C 643.259 557.142 647.789 554.502 653.819 555.002 Z " fill="rgb(70,67,83)"/><g opacity="0.05"><path d=" M 653.819 555.002 C 657.149 553.732 660.819 554.192 664.389 554.672 C 675.879 556.242 687.539 557.852 698.189 562.442 C 703.189 564.582 707.949 567.442 711.329 571.652 C 714.329 575.442 716.079 580.082 717.739 584.652 L 721.579 595.142 C 723.039 599.142 724.519 603.222 724.929 607.472 C 726.129 620.062 717.519 631.932 706.689 638.472 C 695.859 645.012 683.109 647.342 670.689 649.782 C 658.269 652.222 645.799 654.922 633.429 657.782 C 627.659 659.279 621.805 660.431 615.899 661.232 C 602.659 662.732 588.819 660.522 576.239 664.902 C 571.239 666.652 566.329 669.252 561.139 670.462 C 557.696 671.217 554.214 671.778 550.709 672.142 L 526.899 674.862 C 522.057 675.509 517.182 675.883 512.299 675.982 C 501.899 675.982 491.669 673.522 481.569 671.062 C 480.495 670.873 479.473 670.461 478.569 669.852 C 476.969 668.592 476.619 666.362 476.389 664.342 Q 474.859 650.932 473.709 637.492 C 473.469 634.582 473.289 631.432 474.879 628.982 C 476.879 625.982 480.779 625.042 484.339 624.462 C 499.434 621.992 514.727 620.931 530.019 621.292 C 535.829 615.482 545.409 615.452 553.019 612.292 C 555.818 611.006 558.528 609.533 561.129 607.882 C 574.735 599.943 589.941 595.136 605.639 593.812 C 608.714 593.718 611.77 593.282 614.749 592.512 C 620.639 590.682 626.009 585.702 632.059 586.922 C 632.809 584.852 633.329 582.082 635.059 580.662 C 635.919 579.932 636.979 579.442 637.769 578.662 C 639.439 576.972 639.589 574.312 639.339 571.952 C 639.089 569.592 638.529 567.172 639.139 564.872 C 639.392 564.001 639.766 563.17 640.249 562.402 C 643.259 557.142 647.789 554.502 653.819 555.002 Z " fill="rgb(0,0,0)"/></g><path d=" M 457.249 670.712 C 451.059 677.882 445.609 680.442 435.919 680.212 Q 426.979 680.002 418.059 679.282 C 413.994 678.842 409.906 678.652 405.819 678.712 C 393.479 679.192 381.569 684.842 369.259 683.852 C 367.438 683.709 365.638 683.373 363.889 682.852 C 361.111 682.079 358.602 680.552 356.639 678.442 C 354.279 675.772 353.149 672.232 352.499 668.732 C 349.209 650.792 358.229 631.252 374.019 622.122 C 376.079 620.791 378.421 619.959 380.859 619.692 C 383.249 619.682 385.612 620.201 387.779 621.212 L 387.929 621.272 C 394.344 623.911 400.17 627.8 405.069 632.712 C 405.812 633.563 406.699 634.277 407.689 634.822 C 408.677 635.195 409.722 635.391 410.779 635.402 L 423.919 636.232 C 426.145 636.298 428.357 636.603 430.519 637.142 C 432.901 637.974 435.22 638.976 437.459 640.142 C 444.529 643.302 452.369 644.142 460.009 645.362 C 460.745 645.403 461.447 645.684 462.009 646.162 C 462.313 646.541 462.526 646.986 462.629 647.462 C 464.794 655.625 462.78 664.33 457.249 670.712 L 457.249 670.712 Z " fill="rgb(63,61,86)"/><g opacity="0.1"><path d=" M 387.889 621.272 C 382.79 626.14 378.368 631.669 374.739 637.712 C 368.915 647.685 365.255 658.772 363.999 670.252 C 363.522 674.44 363.485 678.666 363.889 682.862 C 361.11 682.086 358.601 680.556 356.639 678.442 C 354.279 675.772 353.149 672.232 352.499 668.732 C 349.209 650.792 358.229 631.252 374.019 622.122 C 376.079 620.791 378.421 619.959 380.859 619.692 C 383.249 619.682 385.612 620.201 387.779 621.212 L 387.889 621.272 Z " fill="rgb(0,0,0)"/></g><path d=" M 642.379 646.142 C 649.729 645.942 657.979 645.572 663.379 650.522 C 668.529 655.202 669.209 662.922 669.549 669.872 L 669.939 677.942 C 670.059 680.402 670.159 682.942 669.169 685.222 C 667.409 689.222 662.579 691.152 658.169 690.922 C 653.759 690.692 649.709 688.762 645.679 687.022 C 634.738 682.308 623.346 678.72 611.679 676.312 Q 612.249 667.942 613.579 659.652 C 614.189 655.822 614.289 649.412 616.849 646.232 C 619.559 642.872 623.089 644.692 626.769 645.312 C 631.932 646.1 637.161 646.378 642.379 646.142 Z " fill="rgb(251,190,190)"/><path d=" M 448.159 565.062 C 448.159 566.062 446.589 565.062 446.449 563.992 C 445.349 555.902 438.929 549.232 431.449 545.992 C 423.969 542.752 415.449 542.582 407.349 543.352 C 395.099 544.512 381.399 549.202 376.869 560.652 C 375.809 563.332 375.329 566.232 374.029 568.802 C 372.589 571.622 370.239 573.872 368.679 576.612 C 365.989 581.352 365.879 587.162 366.849 592.522 C 369.459 606.822 379.239 619.052 391.089 627.522 C 402.939 635.992 416.789 641.052 430.599 645.612 C 467.115 657.655 504.581 666.604 542.599 672.362 C 548.759 673.292 554.979 674.152 560.879 676.132 C 566.159 677.902 571.099 680.552 576.259 682.632 C 588.259 687.452 601.169 689.172 613.959 690.862 C 616.139 691.142 618.639 691.342 620.249 689.862 C 622.329 687.932 621.639 684.572 621.049 681.802 C 618.877 671.278 620.691 660.324 626.139 651.062 C 628.279 647.462 631.059 643.772 630.659 639.602 C 630.179 634.742 625.339 631.302 620.519 630.522 C 615.699 629.742 610.799 630.892 605.959 631.522 C 604.289 631.742 602.469 631.882 600.959 631.032 C 600.239 630.546 599.587 629.968 599.019 629.312 C 592.178 622.713 581.866 621.272 573.479 625.742 C 571.689 626.742 568.979 624.512 567.119 623.672 L 546.109 614.142 C 521.949 603.212 497.669 592.232 472.109 585.312 C 470.069 584.911 468.131 584.105 466.409 582.942 C 465.139 581.942 464.229 580.582 463.059 579.472 C 460.509 577.062 456.959 576.102 453.899 574.392 C 450.839 572.682 447.439 568.492 448.159 565.062 Z " fill="rgb(70,67,83)"/><path d=" M 772.349 695.752 C 768.989 701.982 762.469 705.862 755.469 707.462 C 753.712 707.858 751.926 708.112 750.129 708.222 C 741.279 708.772 732.539 706.322 724.009 703.902 L 712.429 700.622 C 710.438 699.995 708.397 699.54 706.329 699.262 C 703.513 699.074 700.685 699.171 697.889 699.552 C 684.202 700.825 670.406 700.206 656.889 697.712 C 655.758 697.59 654.672 697.203 653.719 696.582 C 652.884 695.763 652.142 694.854 651.509 693.872 C 648.359 690.082 644.969 687.872 648.699 682.872 C 650.849 679.972 654.839 678.522 656.509 675.192 C 658.179 671.862 657.109 667.132 656.119 663.692 C 654.769 658.942 650.329 656.892 648.739 652.532 C 647.549 649.242 649.549 645.422 652.559 643.632 C 655.569 641.842 659.289 641.702 662.759 642.162 C 666.229 642.622 669.629 643.602 673.119 643.872 C 683.379 644.692 693.869 639.402 703.719 642.382 C 705.889 643.042 707.939 644.092 710.139 644.672 C 714.427 645.631 718.908 645.244 722.969 643.562 C 724.409 643.022 725.819 642.372 727.219 641.732 C 729.918 640.326 732.794 639.287 735.769 638.642 C 745.379 636.992 754.289 643.642 761.539 650.132 C 764.027 652.197 766.23 654.585 768.089 657.232 C 770.089 660.352 771.149 663.982 772.089 667.562 C 774.739 676.832 776.929 687.252 772.349 695.752 Z " fill="rgb(63,61,86)"/><g opacity="0.1"><path d=" M 772.349 695.752 C 768.989 701.982 762.469 705.862 755.469 707.462 C 758.191 702.172 759.419 696.238 759.019 690.302 C 758.419 680.792 754.239 671.832 748.909 663.932 C 745.63 659.069 741.9 654.525 737.769 650.362 C 734.589 647.162 730.679 644.622 727.259 641.692 C 729.958 640.286 732.834 639.247 735.809 638.602 C 745.419 636.952 754.329 643.602 761.579 650.092 C 764.067 652.157 766.27 654.545 768.129 657.192 C 770.129 660.312 771.189 663.942 772.129 667.522 C 774.739 676.832 776.929 687.252 772.349 695.752 Z " fill="rgb(0,0,0)"/></g><path d=" M 470.319 210.492 C 466.959 212.922 464.659 216.412 462.319 219.762 C 458.009 225.952 453.129 232.132 446.239 235.582 C 443.629 236.892 440.649 237.882 438.919 240.162 C 437.892 241.704 437.225 243.457 436.969 245.292 C 435.649 251.743 434.959 258.307 434.909 264.892 C 434.909 268.172 435.049 271.552 436.499 274.532 C 437.869 277.332 440.339 279.702 440.849 282.752 C 441.239 285.132 440.359 287.502 440.049 289.892 C 439.739 292.282 440.279 295.112 442.489 296.252 C 443.679 296.7 444.923 296.992 446.189 297.122 C 452.839 298.602 455.069 306.402 456.079 312.852 C 458.339 312.722 459.359 310.132 459.829 308.022 L 466.759 277.212 C 467.509 273.872 468.759 270.002 472.089 268.832 C 474.319 268.062 476.759 268.782 479.089 268.982 C 488.239 269.732 495.979 262.662 504.929 260.712 C 507.794 260.137 510.723 259.945 513.639 260.142 C 520.699 260.492 528.909 263.392 530.409 269.982 C 530.659 271.052 530.809 272.332 531.809 272.862 C 532.809 273.392 533.809 272.942 534.909 272.862 C 539.389 272.412 542.029 277.452 543.319 281.572 L 548.019 296.572 C 548.719 298.842 549.899 301.512 552.359 301.802 C 554.629 302.082 556.559 299.932 556.899 297.802 C 557.239 295.672 556.499 293.462 556.009 291.322 C 553.799 281.472 557.179 271.392 559.239 261.522 C 561.299 251.652 561.669 240.312 554.759 232.712 C 552.249 229.962 548.949 227.912 546.609 225.012 C 544.429 222.292 543.199 218.952 540.939 216.282 C 534.689 208.912 518.659 203.222 508.829 202.282 C 497.639 201.052 479.399 203.902 470.319 210.492 Z " fill="rgb(63,61,86)"/><g style="opacity:0.1;"><g opacity="0.1"><path d=" M 552.399 294.792 C 549.939 294.492 548.759 291.792 548.059 289.562 Q 545.709 282.052 543.359 274.562 C 542.069 270.432 539.429 265.392 534.949 265.852 C 533.949 265.962 532.769 266.372 531.849 265.852 C 530.929 265.332 530.699 264.042 530.449 262.972 C 528.949 256.372 520.739 253.482 513.679 253.132 C 510.763 252.94 507.834 253.132 504.969 253.702 C 495.969 255.702 488.279 262.702 479.129 261.972 C 476.769 261.782 474.329 261.062 472.129 261.832 C 468.759 262.992 467.549 266.832 466.799 270.212 L 459.869 301.012 C 459.399 303.132 458.379 305.722 456.119 305.842 C 455.119 299.402 452.879 291.602 446.229 290.122 C 444.965 289.983 443.722 289.69 442.529 289.252 C 441.659 288.777 440.977 288.018 440.599 287.102 C 440.419 288.032 440.209 288.962 440.089 289.892 C 439.789 292.272 440.319 295.112 442.529 296.252 C 443.719 296.7 444.963 296.992 446.229 297.122 C 452.879 298.602 455.109 306.402 456.119 312.852 C 458.379 312.722 459.399 310.132 459.869 308.022 L 466.799 277.212 C 467.549 273.872 468.799 270.002 472.129 268.832 C 474.359 268.062 476.799 268.782 479.129 268.982 C 488.279 269.732 496.019 262.662 504.969 260.712 C 507.821 260.141 510.736 259.949 513.639 260.142 C 520.699 260.492 528.909 263.392 530.409 269.982 C 530.659 271.052 530.809 272.332 531.809 272.862 C 532.809 273.392 533.809 272.942 534.909 272.862 C 539.389 272.412 542.029 277.452 543.319 281.572 Q 545.659 289.082 548.019 296.572 C 548.719 298.842 549.899 301.512 552.359 301.802 C 554.629 302.082 556.559 299.932 556.899 297.802 C 557.052 296.01 556.848 294.205 556.299 292.492 C 555.572 293.966 554.04 294.87 552.399 294.792 L 552.399 294.792 Z " fill="rgb(0,0,0)"/></g><g opacity="0.1"><path d=" M 440.859 275.752 C 440.349 272.702 437.859 270.332 436.509 267.532 C 435.641 265.643 435.138 263.607 435.029 261.532 C 435.029 262.652 434.929 263.772 434.919 264.902 C 434.919 268.182 435.059 271.562 436.509 274.542 C 437.619 276.812 439.449 278.812 440.369 281.122 C 440.854 279.376 441.02 277.557 440.859 275.752 L 440.859 275.752 Z " fill="rgb(0,0,0)"/></g><g opacity="0.1"><path d=" M 559.279 254.472 C 557.459 263.192 554.619 272.072 555.499 280.812 C 556.069 274.362 557.949 267.872 559.279 261.472 C 560.387 256.615 560.778 251.622 560.439 246.652 C 560.221 249.281 559.833 251.893 559.279 254.472 L 559.279 254.472 Z " fill="rgb(0,0,0)"/></g></g><path d=" M 444.799 478.642 C 443.589 498.502 429.019 514.912 423.469 534.012 C 422.089 538.792 421.259 543.752 419.279 548.302 C 415.279 557.452 407.049 564.092 398.279 568.772 C 395.079 570.621 391.579 571.894 387.939 572.532 C 379.745 573.489 371.815 569.271 368.029 561.942 C 365.739 557.292 365.419 551.942 364.029 546.942 C 362.479 541.172 359.579 535.852 357.689 530.182 C 354.209 519.752 354.279 508.332 356.689 497.612 C 358.972 488.289 362.586 479.344 367.419 471.052 C 368.119 469.822 368.829 468.602 369.559 467.392 C 371.621 463.894 373.938 460.552 376.489 457.392 C 382.489 450.162 390.199 444.602 397.829 439.122 C 398.411 438.642 399.095 438.3 399.829 438.122 L 399.949 438.122 C 400.809 438.092 401.662 438.292 402.419 438.702 C 413 443.277 423.156 448.778 432.769 455.142 C 436.209 457.432 441.639 459.992 443.439 463.892 C 445.239 467.792 445.059 474.402 444.799 478.642 Z " fill="rgb(251,190,190)"/><path d=" M 405.099 387.252 C 404.124 388.272 403.369 389.48 402.879 390.802 C 394.795 409.019 390.021 428.53 388.779 448.422 C 388.8 449.392 388.577 450.351 388.129 451.212 C 387.687 451.784 387.195 452.316 386.659 452.802 C 385.674 453.968 385.217 455.49 385.395 457.006 C 385.573 458.521 386.371 459.895 387.599 460.802 C 389.249 457.692 393.199 456.682 396.709 456.412 C 413.519 455.082 429.939 462.902 446.799 462.312 C 445.609 458.202 443.899 454.252 442.929 450.092 C 438.639 431.622 449.339 411.512 442.779 393.722 C 441.469 390.162 439.279 386.662 435.829 385.102 C 434.4 384.525 432.905 384.128 431.379 383.922 C 427.119 383.152 418.639 379.862 414.519 381.182 C 412.999 381.672 412.399 383.102 411.139 383.962 C 409.269 385.192 406.729 385.622 405.099 387.252 Z " fill="rgb(248,109,112)"/><g opacity="0.1"><path d=" M 411.989 552.602 C 406.76 561.471 397.283 566.971 386.989 567.112 C 384.249 567.184 381.524 566.683 378.989 565.642 C 372.599 562.822 368.989 555.842 367.649 548.982 C 366.309 542.122 366.729 535.042 365.779 528.112 C 365.019 522.592 363.399 517.232 362.559 511.722 C 360.499 498.092 364.559 484.632 367.449 471.062 C 368.149 469.832 368.859 468.612 369.589 467.402 C 371.651 463.904 373.968 460.562 376.519 457.402 C 382.519 450.172 390.229 444.612 397.859 439.132 L 389.859 439.132 C 390.252 438.844 390.77 438.787 391.217 438.983 C 391.664 439.178 391.973 439.597 392.029 440.082 C 392.819 447.082 402.689 454.082 404.839 460.882 C 406.169 465.062 407.769 469.162 408.839 473.422 C 409.682 477.05 410.323 480.722 410.759 484.422 Q 412.889 499.952 414.999 515.422 C 416.769 528.012 418.289 541.622 411.989 552.602 Z " fill="rgb(0,0,0)"/></g><path d=" M 398.749 421.302 L 408.399 391.032 C 409.839 386.502 411.299 381.902 411.469 377.142 C 411.639 372.382 410.389 367.392 407.059 363.992 C 404.359 361.242 400.619 359.822 397.419 357.672 C 389.419 352.282 385.419 342.842 381.249 334.152 C 377.079 325.462 371.589 316.372 362.489 313.152 C 360.389 312.412 357.489 312.352 356.549 314.362 C 356.223 315.198 356.171 316.115 356.399 316.982 C 357.279 321.602 360.589 325.292 363.469 328.982 C 368.299 335.232 372.339 342.882 371.179 350.702 C 369.799 359.962 361.479 367.142 360.479 376.452 C 360.039 380.552 361.089 384.662 361.079 388.792 C 361.079 391.352 360.659 393.962 361.229 396.462 C 361.82 398.395 362.525 400.291 363.339 402.142 C 364.229 405.132 364.694 408.232 364.719 411.352 L 366.829 450.712 C 367.969 472.002 356.419 492.712 359.599 513.712 C 360.439 519.222 362.059 524.582 362.819 530.102 C 363.819 537.032 363.349 544.102 364.689 550.972 C 366.029 557.842 369.689 564.812 376.029 567.632 C 378.564 568.673 381.289 569.174 384.029 569.102 C 394.323 568.961 403.8 563.461 409.029 554.592 C 415.329 543.592 413.809 530.002 412.089 517.462 L 407.849 486.462 C 407.413 482.762 406.772 479.09 405.929 475.462 C 404.869 471.202 403.269 467.102 401.929 462.922 C 397.639 449.252 394.429 434.882 398.749 421.302 Z " fill="rgb(251,190,190)"/><path d="M 448.569 423.652 L 655.629 423.652 C 660.027 423.652 663.599 427.223 663.599 431.622 L 663.599 557.682 C 663.599 562.081 660.027 565.652 655.629 565.652 L 448.569 565.652 C 444.17 565.652 440.599 562.081 440.599 557.682 L 440.599 431.622 C 440.599 427.223 444.17 423.652 448.569 423.652 Z" style="stroke:none;fill:#3F3D56;stroke-miterlimit:10;"/><g style="mix-blend-mode:normal;" opacity="0.2"><path d="M 448.569 423.652 L 655.629 423.652 C 660.027 423.652 663.599 427.223 663.599 431.622 L 663.599 557.682 C 663.599 562.081 660.027 565.652 655.629 565.652 L 448.569 565.652 C 444.17 565.652 440.599 562.081 440.599 557.682 L 440.599 431.622 C 440.599 427.223 444.17 423.652 448.569 423.652 Z" style="stroke:none;fill:#000000;stroke-miterlimit:10;"/></g><circle vector-effect="non-scaling-stroke" cx="551.5985193223197" cy="494.65186222446323" r="6" fill="rgb(255,255,255)"/><path d=" M 288.469 610.992 L 300.579 610.992 C 314.386 610.992 325.579 622.185 325.579 635.992 L 325.579 673.102 L 263.469 673.102 L 263.469 635.992 C 263.469 622.185 274.661 610.992 288.469 610.992 Z " fill="rgb(63,61,86)"/><g opacity="0.1"><path d=" M 288.469 610.992 L 300.579 610.992 C 314.386 610.992 325.579 622.185 325.579 635.992 L 325.579 673.102 L 263.469 673.102 L 263.469 635.992 C 263.469 622.185 274.661 610.992 288.469 610.992 Z " fill="rgb(0,0,0)"/></g><circle vector-effect="non-scaling-stroke" cx="292.0485193223195" cy="619.6918622244632" r="4.970000000000027" fill="rgb(63,61,86)"/><circle vector-effect="non-scaling-stroke" cx="292.0485193223195" cy="613.4818622244632" r="4.970000000000027" fill="rgb(63,61,86)"/><circle vector-effect="non-scaling-stroke" cx="292.0485193223195" cy="607.2718622244631" r="4.970000000000027" fill="rgb(63,61,86)"/><circle vector-effect="non-scaling-stroke" cx="292.0485193223195" cy="601.0618622244633" r="4.970000000000027" fill="rgb(63,61,86)"/><circle vector-effect="non-scaling-stroke" cx="292.0485193223195" cy="594.8518622244633" r="4.970000000000027" fill="rgb(63,61,86)"/><circle vector-effect="non-scaling-stroke" cx="292.0485193223195" cy="588.6418622244632" r="4.970000000000027" fill="rgb(63,61,86)"/><circle vector-effect="non-scaling-stroke" cx="292.0485193223195" cy="582.4318622244634" r="4.970000000000027" fill="rgb(63,61,86)"/><circle vector-effect="non-scaling-stroke" cx="299.4985193223195" cy="584.9118622244632" r="4.970000000000027" fill="rgb(63,61,86)"/><circle vector-effect="non-scaling-stroke" cx="304.46851932231954" cy="582.4318622244634" r="4.970000000000027" fill="rgb(63,61,86)"/><circle vector-effect="non-scaling-stroke" cx="309.4385193223196" cy="579.9418622244632" r="4.970000000000027" fill="rgb(63,61,86)"/><circle vector-effect="non-scaling-stroke" cx="292.0485193223195" cy="576.2118622244632" r="4.970000000000027" fill="rgb(63,61,86)"/><circle vector-effect="non-scaling-stroke" cx="292.0485193223195" cy="570.0018622244631" r="4.970000000000027" fill="rgb(63,61,86)"/><circle vector-effect="non-scaling-stroke" cx="292.0485193223195" cy="563.7918622244631" r="4.970000000000027" fill="rgb(63,61,86)"/><circle vector-effect="non-scaling-stroke" cx="292.0485193223195" cy="557.5818622244633" r="4.970000000000027" fill="rgb(63,61,86)"/><path d=" M 312.639 541.552 C 311.409 541.732 310.169 541.862 308.929 541.942 C 310.081 540.936 311.151 539.839 312.129 538.662 C 311.437 536.575 310.425 534.608 309.129 532.832 C 307.897 533.524 306.535 533.953 305.129 534.092 C 303.899 534.272 302.659 534.412 301.419 534.492 C 303.085 532.906 304.67 531.237 306.169 529.492 C 298.759 522.828 287.698 522.256 279.641 528.121 C 271.585 533.985 268.729 544.686 272.793 553.785 C 276.857 562.884 286.732 567.899 296.476 565.812 C 306.221 563.726 313.177 555.107 313.159 545.142 C 313.159 543.925 313.052 542.71 312.839 541.512 L 312.639 541.552 Z " fill="rgb(108,99,255)"/><path d=" M 329.249 566.242 C 327.979 567.019 326.55 567.498 325.069 567.642 C 323.839 567.822 322.599 567.952 321.359 568.032 C 322.676 566.85 323.906 565.573 325.039 564.212 C 318.829 562.593 312.407 565.963 310.211 571.992 C 308.015 578.022 310.766 584.732 316.562 587.486 C 322.358 590.239 329.298 588.132 332.584 582.621 C 335.871 577.11 334.426 570.002 329.249 566.212 L 329.249 566.242 Z " fill="rgb(108,99,255)"/><circle vector-effect="non-scaling-stroke" cx="284.58851932231954" cy="584.9118622244632" r="4.970000000000027" fill="rgb(63,61,86)"/><circle vector-effect="non-scaling-stroke" cx="279.6185193223195" cy="582.4318622244634" r="4.970000000000027" fill="rgb(63,61,86)"/><circle vector-effect="non-scaling-stroke" cx="274.64851932231954" cy="579.9418622244632" r="4.970000000000027" fill="rgb(63,61,86)"/><path d=" M 254.839 566.242 C 256.107 567.021 257.537 567.499 259.019 567.642 C 260.249 567.822 261.489 567.952 262.729 568.032 C 261.408 566.852 260.178 565.575 259.049 564.212 C 265.258 562.593 271.68 565.963 273.876 571.992 C 276.072 578.022 273.321 584.732 267.525 587.486 C 261.729 590.239 254.789 588.132 251.503 582.621 C 248.216 577.11 249.661 570.002 254.839 566.212 L 254.839 566.242 Z " fill="rgb(108,99,255)"/><path d=" M 288.469 614.722 L 300.579 614.722 C 314.386 614.722 325.579 625.915 325.579 639.722 L 325.579 672.592 C 325.579 673.716 325.132 674.795 324.337 675.59 C 323.541 676.385 322.463 676.832 321.339 676.832 L 267.709 676.832 C 266.584 676.832 265.506 676.385 264.71 675.59 C 263.915 674.795 263.469 673.716 263.469 672.592 L 263.469 639.722 C 263.469 625.915 274.661 614.722 288.469 614.722 Z " fill="rgb(63,61,86)"/><g style="opacity:0.1;"><g opacity="0.1"><path d=" M 313.019 542.912 C 312.515 543.449 311.981 543.957 311.419 544.432 C 311.989 544.432 312.549 544.342 313.119 544.282 C 313.099 543.822 313.069 543.362 313.019 542.912 Z " fill="rgb(0,0,0)"/></g><g opacity="0.1"><path d=" M 303.959 536.972 C 305.209 536.892 306.439 536.762 307.679 536.582 C 308.791 536.441 309.878 536.145 310.909 535.702 C 310.403 534.702 309.821 533.743 309.169 532.832 C 308.547 533.211 307.873 533.497 307.169 533.682 C 306.188 534.862 305.114 535.963 303.959 536.972 L 303.959 536.972 Z " fill="rgb(0,0,0)"/></g><g opacity="0.1"><path d=" M 273.409 547.642 C 273.393 539.919 277.603 532.806 284.38 529.102 C 291.157 525.399 299.417 525.698 305.909 529.882 L 306.229 529.542 C 300.569 524.507 292.645 522.891 285.467 525.31 C 278.288 527.728 272.957 533.809 271.498 541.242 C 270.039 548.675 272.677 556.32 278.409 561.272 C 275.174 557.467 273.402 552.635 273.409 547.642 L 273.409 547.642 Z " fill="rgb(0,0,0)"/></g></g><g style="opacity:0.1;"><g opacity="0.1"><path d=" M 321.359 570.512 C 322.599 570.432 323.839 570.302 325.069 570.122 C 326.551 569.982 327.981 569.503 329.249 568.722 C 332.088 570.813 333.906 574.012 334.249 577.522 C 334.297 577.087 334.32 576.65 334.319 576.212 C 334.338 572.273 332.481 568.56 329.319 566.212 C 328.049 566.989 326.62 567.468 325.139 567.612 L 324.139 567.732 C 323.285 568.729 322.356 569.659 321.359 570.512 Z " fill="rgb(0,0,0)"/></g><g opacity="0.1"><path d=" M 321.859 566.272 C 322.273 566.277 322.687 566.307 323.099 566.362 C 323.749 565.672 324.389 564.932 325.039 564.212 C 321.312 563.217 317.335 564.012 314.278 566.363 C 311.221 568.715 309.432 572.355 309.439 576.212 C 309.439 576.632 309.439 577.042 309.499 577.452 C 310.135 571.104 315.479 566.271 321.859 566.272 L 321.859 566.272 Z " fill="rgb(0,0,0)"/></g></g><g style="opacity:0.1;"><g opacity="0.1"><path d=" M 262.729 570.512 C 261.489 570.432 260.249 570.302 259.019 570.122 C 257.536 569.984 256.105 569.505 254.839 568.722 C 251.999 570.813 250.181 574.012 249.839 577.522 C 249.79 577.087 249.767 576.65 249.769 576.212 C 249.749 572.273 251.606 568.56 254.769 566.212 C 256.037 566.991 257.467 567.469 258.949 567.612 L 259.949 567.732 C 260.796 568.734 261.726 569.664 262.729 570.512 Z " fill="rgb(0,0,0)"/></g><g opacity="0.1"><path d=" M 262.229 566.272 C 261.81 566.277 261.393 566.307 260.979 566.362 C 260.339 565.672 259.699 564.932 259.049 564.212 C 262.775 563.217 266.752 564.012 269.809 566.363 C 272.866 568.715 274.655 572.355 274.649 576.212 C 274.649 576.632 274.649 577.042 274.589 577.452 C 273.952 571.104 268.608 566.271 262.229 566.272 Z " fill="rgb(0,0,0)"/></g></g></g></g></g></svg>