<svg version="1" xmlns="http://www.w3.org/2000/svg" width="1276" height="1276" viewBox="0 0 957 957"><path d="M266 123h-5l-8 2-6 1a192 192 0 0 0-98 52 205 205 0 0 0-37 53c-6 12-13 33-14 45l-1 5c-2 5-3 18-2 31 0 16 0 23 3 34v3l3-2a234 234 0 0 1 38-16l2-1a189 189 0 0 1 82-6l5 1a307 307 0 0 1 24 5 145 145 0 0 1 28 12 137 137 0 0 1 33 20c10 7 37 37 45 50l12 25 3 9c3 5 4 11 6 18l1 4c2 4-1 2-4-3a190 190 0 0 0-123-79l-8-2a203 203 0 0 0-95 12 120 120 0 0 1-11 5l-4 2a200 200 0 0 0-83 83l-1 2-1 2-1 2-1 1-1 4a206 206 0 0 0-11 32v4l-1 5-1 6c-3 11-3 40-1 54l2 12 1 5 1 4 5 15 2 5a174 174 0 0 0 29 50 176 176 0 0 0 49 43 219 219 0 0 0 42 19l3 1 1 1-3 1h-6l-10 1a173 173 0 0 0-19 2l-6 1-4 1-18 1-17 2a839 839 0 0 0-54 11l-10 2c-5 2-15 6-18 9-3 2-3 3-3 6 1 3 4 5 8 7a224 224 0 0 0 78 18 150 150 0 0 1 15 2 129 129 0 0 1 17 2 490 490 0 0 1 42 4 4612 4612 0 0 1 38 3 3269 3269 0 0 0 179 8 8093 8093 0 0 0 334-5l32-3 27-2a705 705 0 0 0 34-3l10-1 18-2a718 718 0 0 0 44-6l6-1 6-1 5-1 5-1a354 354 0 0 0 27-7c3 0 14-7 16-9 2-3 2-3 0-6s-8-7-17-10l-11-3-4-1-2-1h-3l-7-2-6-1-10-2-8-1h-2l-8-2h-5l-6-1-10-2a485 485 0 0 1-38-4l-10-1-10-1-27-2-28-2-16-1-17-1-22-1a2684 2684 0 0 0-159-4l-59-1-2-3-2-3c-2-2-1-3 3-3 13 0 22-2 25-6 2-2 2-2 0-4-1-2-12-6-12-4l-16-9-3-4c-1-2-5-4-8-3v3h-1c-2 0-12-10-16-15l-8-13 2-1c5 0 6-4 3-12-2-4-6-9-10-11-2 0-3-2-4-3l-4-8-8-20v-1l-1-5c-2-6-9-10-17-9l-14 2-1-1a716 716 0 0 1-1-16v-26c0-2 0-3 4-5l4-3c1-1 7-3 12-3 14-2 25-15 22-30-1-4 0-4 2-6 3-2 4-4 4-9 1-4 1-4-3-7l-6-8c-4-6-7-8-15-7h-20c-5-1-10 1-17 8-5 5-5 6-5 13l-1 7c-2 2-2 12-1 18 1 2 0 3-8 6-30 11-47 23-57 38l-4 7a68 68 0 0 1-8 17l-3 5-3 7-8 12-7 12v1l-4 11a136 136 0 0 1-4 14c0 2 1 4 3 5l4 2 1 1 4 1c4 2 4 3 4 5l2 6c3 5 3 5-3 7l-8 2-6 3-4-17a309 309 0 0 1 4-64l2-10a195 195 0 0 1 116-124 247 247 0 0 1 27-10l1-1a74 74 0 0 0 17-12c3 0 27-25 35-35a212 212 0 0 0 33-69l3-16 1-8a224 224 0 0 0-11-86l-2-5a182 182 0 0 0-76-90l-18-10-9-4a168 168 0 0 0-47-13l-42-1zm116 577l2 1 5 8c2 5 6 9 9 12 5 5 16 18 16 20v2l-19 1a199 199 0 0 0-21 0h-22l-1-5c-2-15-10-29-20-37l-3-2h4a400 400 0 0 0 40-2c6 0 9 1 10 2z"/><path d="M688 261l-7 1-10 2-5 1-6 2-3 1-2 1-7 3a171 171 0 0 0-66 50l-4 5-3 5a183 183 0 0 0-21 46l-3 14-2 10h11c13 0 19 1 29 6a75 75 0 0 1 19 15c4 4 12 22 11 24v1a56 56 0 0 1-10 46l-14 14c-6 3-14 7-15 6a175 175 0 0 1-29-69l-2-10 1-30c0-2 0-2-3-2a57 57 0 0 0-41 42l-1 4 5 1c14 4 20 21 10 32-3 4-8 6-9 6l-4-9-1-3-1-1v-5c-1-4-2-15-1-19s-9-1-14 4c-12 14-2 35 15 34 7 0 7 0 8 2 1 4 13 16 20 19 10 6 19 8 30 8 9-1 14-1 16-3l4 4a243 243 0 0 0 38 35 160 160 0 0 0 108 24l8-1h3l2-1c9 0 42-14 56-23 14-10 28-23 38-37l7-9 1-1 5-8 4-9 2-5a732 732 0 0 1 9-24l1-4 2-10c1-10 1-11 4-11h1l2-1 5-2 5-3 7-6a58 58 0 0 0 18-35l4-3c4-1 11-8 11-11l1-2 1-5c-1-10-6-18-15-20-4-1-11 0-11 1l4 7c3 8 5 14 6 23 0 7 0 7-2 8-3 1-10 0-13-3-9-5-12-17-7-26 2-4 8-9 10-9s1-2-6-9-17-13-24-15c-10-2-10-2-29-1-3 0-2 1 1 5l2 4 1 1a60 60 0 0 1 9 15l3 7c1 4 3 7 4 7v1l1 5a126 126 0 0 1 8 33v32c-1 4-3 5-13 5a59 59 0 0 1-54-29c-4-5-7-17-7-26-1-10 1-22 3-23l1-1c-2 0 6-13 11-19 5-5 16-13 20-14l7-3c0-2-16-19-25-26l-6-5-14-9 3 2c4 3 4 4 0 8l-2 2-2 3-4 5a122 122 0 0 1-10 12l-7 9c-14 16-17 21-17 24v7l-2 5-1 4-1 2-5 11-1 1c0 2-9 11-16 16a59 59 0 0 1-56 5c-9-5-16-10-22-18a58 58 0 0 1 25-90c6-2 6-2 4-4-1-2-1-2 1-4l17-21c1-2-2-2-7-1zm58 179a59 59 0 0 1 43 47c1 6 1 20-1 26a57 57 0 0 1-57 41c-11 0-15 0-25-5-15-6-27-22-32-40-2-10 0-26 4-36 7-15 21-27 36-32 9-3 22-3 32-1z"/><path d="M719 262l-4 5-9 11c-6 7-8 11-5 10h4c2 1 3 0 6-4l4-5 14-17-4-1c-3-1-4-1-6 1zM746 270a1202 1202 0 0 1-21 26l3 2c4 2 4 2 11-7l12-15 6-8-2-1-4-2-5 5zM765 288l-12 14-6 7-4 5 2 4 3 3 6-7 7-8 5-7 6-7 3-4 6-8c2-2 2-2-1-3l-4-2-11 13zM932 339c-1 1-1 1 1 5l4 7 1 4 3 15 1 8 5-2c8-5 12-14 9-24-1-4-6-10-8-10l-1-1c0-2-12-4-15-2zM460 460c-2 0-5 2-6 4-13 11-4 33 13 33 7 1 7 0 5-5a84 84 0 0 1-4-11c-1-5-2-12-1-18 1-5 1-5-2-5l-5 2z"/></svg>