<?xml version="1.0" encoding="UTF-8" standalone="no"?>
<!-- Generator: Gravit.io -->
<svg xmlns="http://www.w3.org/2000/svg" xmlns:xlink="http://www.w3.org/1999/xlink" style="isolation:isolate" viewBox="799 519.635 39.1 40.7" width="39.1" height="40.7"><path d=" M 802.555 519.635 C 800.61 519.635 799 521.312 799 523.335 L 799 556.635 C 799 558.659 800.61 560.335 802.555 560.335 L 834.545 560.335 C 836.49 560.335 838.1 558.659 838.1 556.635 L 838.1 523.335 C 838.1 521.312 836.49 519.635 834.545 519.635 L 802.555 519.635 Z  M 802.555 523.335 L 834.545 523.335 L 834.545 556.635 L 825.325 556.635 L 825.325 544.148 L 829.935 544.148 L 830.602 538.598 L 825.327 538.598 L 825.327 535.013 C 825.327 533.396 825.707 532.297 827.936 532.297 L 830.824 532.297 L 830.824 527.267 C 830.332 527.202 828.624 527.093 826.66 527.093 C 822.563 527.093 819.773 529.659 819.773 534.435 L 819.773 538.598 L 815.107 538.598 L 815.107 544.148 L 819.771 544.148 L 819.771 556.635 L 802.555 556.635 L 802.555 523.335 Z " fill="rgb(255,255,255)"/></svg>