<?xml version="1.0" encoding="UTF-8" standalone="no"?>
<!-- Generator: Gravit.io -->
<svg xmlns="http://www.w3.org/2000/svg" xmlns:xlink="http://www.w3.org/1999/xlink" style="isolation:isolate" viewBox="527 527 50 50" width="50" height="50"><path d=" M 541.513 527 C 533.519 527 527 533.519 527 541.513 L 527 562.487 C 527 570.481 533.519 577 541.513 577 L 562.487 577 C 570.481 577 577 570.481 577 562.487 L 577 541.513 C 577 533.519 570.481 527 562.487 527 L 541.513 527 Z  M 541.513 530.846 L 562.487 530.846 C 565.318 530.837 568.037 531.959 570.039 533.961 C 572.041 535.963 573.163 538.682 573.154 541.513 L 573.154 562.487 C 573.163 565.318 572.041 568.037 570.039 570.039 C 568.037 572.041 565.318 573.163 562.487 573.154 L 541.513 573.154 C 538.682 573.163 535.963 572.041 533.961 570.039 C 531.959 568.037 530.837 565.318 530.846 562.487 L 530.846 541.513 C 530.837 538.682 531.959 535.963 533.961 533.961 C 535.963 531.959 538.682 530.837 541.513 530.846 L 541.513 530.846 Z  M 566.423 534.692 C 564.83 534.692 563.538 535.984 563.538 537.577 C 563.538 539.17 564.83 540.462 566.423 540.462 C 568.016 540.462 569.308 539.17 569.308 537.577 C 569.308 535.984 568.016 534.692 566.423 534.692 Z  M 552 538.538 C 544.587 538.538 538.538 544.587 538.538 552 C 538.538 559.413 544.587 565.462 552 565.462 C 559.413 565.462 565.462 559.413 565.462 552 C 565.462 544.587 559.413 538.538 552 538.538 Z  M 552 542.385 C 557.333 542.385 561.615 546.667 561.615 552 C 561.615 557.333 557.333 561.615 552 561.615 C 546.667 561.615 542.385 557.333 542.385 552 C 542.385 546.667 546.667 542.385 552 542.385 Z " fill="rgb(255,255,255)"/></svg>