<?xml version="1.0" encoding="UTF-8" standalone="no"?>
<!-- Generator: Gravit.io -->
<svg xmlns="http://www.w3.org/2000/svg" xmlns:xlink="http://www.w3.org/1999/xlink" style="isolation:isolate" viewBox="514.939 519.635 50.122 40.729" width="50.122" height="40.729"><path d=" M 565.061 524.456 C 563.183 525.289 561.191 525.835 559.151 526.076 C 561.299 524.793 562.907 522.771 563.674 520.389 C 561.654 521.585 559.446 522.428 557.143 522.881 C 555.2 520.806 552.482 519.631 549.639 519.635 C 543.959 519.635 539.353 524.237 539.353 529.916 C 539.353 530.721 539.447 531.506 539.623 532.26 C 531.076 531.83 523.502 527.737 518.428 521.514 C 517.514 523.085 517.034 524.87 517.038 526.686 C 517.038 530.252 518.85 533.401 521.611 535.248 C 519.977 535.196 518.38 534.754 516.951 533.959 L 516.951 534.089 C 516.951 539.073 520.498 543.225 525.197 544.174 C 523.682 544.585 522.094 544.644 520.553 544.346 C 521.865 548.428 525.663 551.409 530.158 551.491 C 526.516 554.35 522.018 555.898 517.388 555.888 C 516.557 555.888 515.74 555.841 514.939 555.744 C 519.639 558.769 525.112 560.373 530.701 560.364 C 549.615 560.364 559.959 544.697 559.959 531.111 C 559.959 530.665 559.947 530.216 559.932 529.779 C 561.944 528.323 563.681 526.52 565.061 524.454 L 565.061 524.456 Z " fill="rgb(255,255,255)"/></svg>